<?xml version="1.0" encoding="utf-8"?>
<!-- Generator: Adobe Illustrator 21.0.0, SVG Export Plug-In . SVG Version: 6.00 Build 0)  -->
<svg version="1.1" id="Capa_1" xmlns="http://www.w3.org/2000/svg" xmlns:xlink="http://www.w3.org/1999/xlink" x="0px" y="0px"
	 viewBox="0 0 16 16" style="enable-background:new 0 0 16 16;" xml:space="preserve">
	<path fill="currentColor" d="M9.2,8l3.6-3.6c0.3-0.3,0.3-0.9,0-1.2c-0.3-0.3-0.9-0.3-1.2,0L8,6.8L4.4,3.2c-0.3-0.3-0.9-0.3-1.2,0
		c-0.3,0.3-0.3,0.9,0,1.2L6.8,8l-3.6,3.6c-0.3,0.3-0.3,0.9,0,1.2c0.3,0.3,0.9,0.3,1.2,0L8,9.2l3.6,3.6c0.3,0.3,0.9,0.3,1.2,0
		s0.3-0.9,0-1.2L9.2,8z"/>
</svg>
