<?xml version="1.0" encoding="utf-8"?>
<!-- Generator: Adobe Illustrator 21.0.0, SVG Export Plug-In . SVG Version: 6.00 Build 0)  -->
<svg version="1.1" id="Слой_1" xmlns="http://www.w3.org/2000/svg" xmlns:xlink="http://www.w3.org/1999/xlink" x="0px" y="0px"
	 viewBox="0 0 29 29" style="enable-background:new 0 0 29 29;" xml:space="preserve">
<path fill="#fff" d="M14.5,2C21.4,2,27,7.6,27,14.5S21.4,27,14.5,27S2,21.4,2,14.5S7.6,2,14.5,2 M14.5,0C6.5,0,0,6.5,0,14.5
	S6.5,29,14.5,29S29,22.5,29,14.5S22.5,0,14.5,0L14.5,0z"/>
<g>
	<g>
		<path fill="#fff" d="M14.5,7.6l3,4.8l-3,1.8h0l-3-1.8L14.5,7.6 M15,5h-1l-5,8l5,3h1l5-3L15,5L15,5z"/>
	</g>
	<g>
		<path fill="#fff" d="M12.6,18.4l0.7,0.3l0.3,0.1H14h1h0.3l0.3-0.1l0.7-0.3l-1.9,3L12.6,18.4 M20,15l-5,2h-1l-5-2v1l5,8h1l5-8V15
			L20,15z"/>
	</g>
</g>
</svg>
