<?xml version="1.0" encoding="utf-8"?>
<!-- Generator: Adobe Illustrator 21.0.0, SVG Export Plug-In . SVG Version: 6.00 Build 0)  -->
<svg version="1.1" id="Capa_1" xmlns="http://www.w3.org/2000/svg" xmlns:xlink="http://www.w3.org/1999/xlink" x="0px" y="0px"
	 viewBox="0 0 16 16" style="enable-background:new 0 0 16 16;" xml:space="preserve">
	<path fill="currentColor" d="M11.3,14.3l-0.2,0.9c-0.7,0.3-1.2,0.5-1.6,0.6C9.1,15.9,8.6,16,8.1,16c-0.8,0-1.4-0.2-1.9-0.6
		c-0.5-0.4-0.7-0.9-0.7-1.5c0-0.2,0-0.5,0.1-0.7c0-0.2,0.1-0.5,0.2-0.8l0.8-3c0.1-0.3,0.1-0.6,0.2-0.8c0.1-0.3,0.1-0.5,0.1-0.7
		c0-0.4-0.1-0.6-0.2-0.8C6.5,6.9,6.2,6.8,5.7,6.8c-0.2,0-0.4,0-0.7,0.1C4.8,7,4.6,7.1,4.5,7.1l0.2-0.9C5.2,6,5.8,5.8,6.3,5.7
		c0.5-0.2,1-0.2,1.4-0.2c0.8,0,1.4,0.2,1.9,0.6c0.4,0.4,0.7,0.9,0.7,1.5c0,0.1,0,0.4,0,0.7c0,0.3-0.1,0.6-0.2,0.9l-0.8,3
		C9.1,12.3,9,12.6,9,12.9c-0.1,0.3-0.1,0.5-0.1,0.7c0,0.4,0.1,0.7,0.3,0.8c0.2,0.1,0.5,0.2,0.9,0.2c0.2,0,0.4,0,0.7-0.1
		C11,14.4,11.2,14.3,11.3,14.3z M11.5,1.9c0,0.5-0.2,1-0.6,1.3c-0.4,0.4-0.9,0.5-1.4,0.5c-0.5,0-1-0.2-1.4-0.5
		C7.7,2.8,7.5,2.4,7.5,1.9c0-0.5,0.2-1,0.6-1.3C8.5,0.2,9,0,9.5,0c0.5,0,1,0.2,1.4,0.5C11.3,0.9,11.5,1.4,11.5,1.9z"/>
</svg>
