<?xml version="1.0" encoding="utf-8"?>
<!-- Generator: Adobe Illustrator 21.0.0, SVG Export Plug-In . SVG Version: 6.00 Build 0)  -->
<svg version="1.1" id="Слой_1" xmlns="http://www.w3.org/2000/svg" xmlns:xlink="http://www.w3.org/1999/xlink" x="0px" y="0px"
	 viewBox="0 0 29 29" style="enable-background:new 0 0 29 29;" xml:space="preserve">
	<path fill="#202634" d="M25,4.5H4c-2.2,0-4,1.8-4,4v12c0,2.2,1.8,4,4,4h21c2.2,0,4-1.8,4-4v-12C29,6.3,27.2,4.5,25,4.5L25,4.5z
		 M14.5,17L3.9,6.5c0,0,0.1,0,0.1,0h21L14.5,17L14.5,17z M26.8,21.4l-6.8-6.8l6.9-6.9C26.9,7.9,27,8.2,27,8.5v12
		C27,20.8,26.9,21.1,26.8,21.4L26.8,21.4z M2.2,21.4C2.1,21.1,2,20.8,2,20.5v-12c0-0.3,0.1-0.6,0.2-0.8l6.9,6.9L2.2,21.4L2.2,21.4z
		 M4,22.5l6.5-6.5l2.5,2.5l1.5,1.5l1.5-1.5l2.5-2.5l6.4,6.4H4L4,22.5z"/>
</svg>
