<?xml version="1.0" encoding="utf-8"?>
<!-- Generator: Adobe Illustrator 21.0.0, SVG Export Plug-In . SVG Version: 6.00 Build 0)  -->
<svg version="1.1" id="Слой_1" xmlns="http://www.w3.org/2000/svg" xmlns:xlink="http://www.w3.org/1999/xlink" x="0px" y="0px"
	 viewBox="0 0 40 40" style="enable-background:new 0 0 40 40;" xml:space="preserve">
			<path fill="#fff" d="M10.3,27.6c-1,0-1.8,0.6-2,1.5l-0.9,3c0,0,0,0.1,0,0.1c0,0.2,0.2,0.4,0.4,0.4c0,0,0.1,0,0.1,0l3-0.9
				c0.9-0.3,1.5-1.1,1.5-2C12.4,28.6,11.4,27.6,10.3,27.6z M32.2,6.5c-4.6,0-9,0.2-12.7,2.6c-2,1.3-3.6,3-4.9,5
				c-3.2,0.2-6.1,1.8-8,4.4c-0.3,0.4-0.3,0.8-0.1,1.2c0.2,0.4,0.5,0.7,1,0.8c1.1,0.2,2.4,0.7,3.7,1.5c-0.2,0.8-0.4,1.7-0.6,2.4
				c-0.1,0.4,0.1,0.8,0.4,1.1l3.4,3.4c0.2,0.2,0.6,0.4,0.9,0.4c0.1,0,0.1,0,0.2,0c0.8-0.1,1.6-0.3,2.4-0.6c0.8,1.3,1.3,2.5,1.5,3.7
				c0.1,0.4,0.4,0.8,0.8,1c0.2,0.1,0.3,0.1,0.5,0.1c0.3,0,0.5-0.1,0.7-0.2c2.6-1.9,4.2-4.8,4.4-8c2-1.3,3.8-2.9,5-4.9
				c2.4-3.7,2.6-8.3,2.6-12.7C33.5,7.1,32.9,6.5,32.2,6.5z M9.3,18.8c1.1-1.1,2.5-1.9,4.1-2.3c-0.6,1.1-1.1,2.3-1.5,3.5
				C11,19.4,10.1,19,9.3,18.8z M21.2,30.7c-0.3-0.9-0.7-1.7-1.1-2.6c1.2-0.4,2.3-0.9,3.5-1.5C23.2,28.2,22.4,29.6,21.2,30.7z
				 M28.8,19c-2.6,4-8.3,6.7-13,7.7l-2.5-2.5c1-4.7,3.6-10.4,7.7-13c2.8-1.8,6.3-2.1,10-2.2C30.9,12.7,30.6,16.2,28.8,19z
				 M24.6,17.5c1.2,0,2.1-0.9,2.1-2.1s-0.9-2.1-2.1-2.1c-1.2,0-2.1,0.9-2.1,2.1S23.5,17.5,24.6,17.5z"/>
</svg>
