<?xml version="1.0" encoding="utf-8"?>
<!-- Generator: Adobe Illustrator 21.0.0, SVG Export Plug-In . SVG Version: 6.00 Build 0)  -->
<svg version="1.1" id="Слой_1" xmlns="http://www.w3.org/2000/svg" xmlns:xlink="http://www.w3.org/1999/xlink" x="0px" y="0px"
	 viewBox="0 0 34 30" style="enable-background:new 0 0 34 30;" xml:space="preserve">
<path fill="currentColor" d="M11,2c0.4,0,0.8,0.1,1.1,0.3l18,11.1c0.6,0.4,0.9,0.9,0.9,1.6s-0.3,1.2-0.9,1.6l-18,11.1
	C11.8,27.9,11.4,28,11,28c-1,0-2-0.7-2-1.9V3.9C9,2.7,10.1,2,11,2 M11,0C8.9,0,7,1.6,7,3.9v22.2c0,2.3,1.9,3.9,4,3.9
	c0.7,0,1.5-0.2,2.1-0.6l18-11.1c2.5-1.5,2.5-5,0-6.6l-18-11.1C12.5,0.2,11.7,0,11,0L11,0z"/>
</svg>
