<svg
 xmlns="http://www.w3.org/2000/svg"
 xmlns:xlink="http://www.w3.org/1999/xlink"
 viewBox="0 0 56 56">
<path fill-rule="evenodd" stroke="#5aa245" stroke-width="3px" stroke-linecap="round" stroke-linejoin="round" opacity="0.239" fill="none"
 d="M27.500,1.500 C41.859,1.500 53.500,13.141 53.500,27.500 C53.500,41.859 41.859,53.500 27.500,53.500 C13.141,53.500 1.500,41.859 1.500,27.500 C1.500,13.141 13.141,1.500 27.500,1.500 Z"/>
<path fill-rule="evenodd" fill="#5aa245"
 d="M22.672,22.922 C24.266,21.234 26.005,20.391 27.891,20.391 C29.026,20.391 29.922,20.669 30.578,21.227 C31.234,21.784 31.562,22.521 31.562,23.438 C31.562,25.708 29.588,26.922 25.641,27.078 L25.484,27.250 L26.125,32.422 L28.719,32.422 L29.031,29.844 C29.958,29.687 30.797,29.451 31.547,29.133 C32.297,28.815 32.971,28.404 33.570,27.898 C34.169,27.393 34.635,26.758 34.969,25.992 C35.302,25.227 35.469,24.354 35.469,23.375 C35.469,21.354 34.786,19.755 33.422,18.578 C32.057,17.401 30.245,16.812 27.984,16.812 C24.922,16.812 22.349,17.995 20.266,20.359 L22.672,22.922 ZM29.484,39.500 L29.484,35.109 L25.203,35.109 L25.203,39.500 L29.484,39.500 Z"/>
</svg>