<?xml version="1.0" encoding="utf-8"?>
<!-- Generator: Adobe Illustrator 21.0.0, SVG Export Plug-In . SVG Version: 6.00 Build 0)  -->
<svg version="1.1" id="Слой_1" xmlns="http://www.w3.org/2000/svg" xmlns:xlink="http://www.w3.org/1999/xlink" x="0px" y="0px"
	 viewBox="0 0 40 40" style="enable-background:new 0 0 40 40;" xml:space="preserve">
<g>
	<path fill="#EEEEEE" d="M16.8,9.9v1.7c-2.7,1.6-4.5,3.1-5.4,4.5c-0.7,1-1.1,2.2-1.1,3.6c0,0.8,0.2,1.4,0.5,1.8c0.3,0.4,0.6,0.6,1,0.6
		c0.3,0,0.6-0.1,1.1-0.3c0.7-0.2,1.3-0.4,1.7-0.4c1,0,2,0.4,2.8,1.2c0.8,0.8,1.2,1.8,1.2,2.9c0,1.3-0.4,2.4-1.2,3.1
		c-1.1,1-2.4,1.5-3.9,1.5c-1.8,0-3.3-0.7-4.7-2.2c-1.4-1.5-2.1-3.3-2.1-5.5c0-3.1,1.1-5.9,3.4-8.4C11.7,12.3,13.9,11,16.8,9.9z"/>
	<path fill="#EEEEEE" d="M31.5,9.9v1.7c-2.7,1.6-4.5,3.1-5.4,4.5c-0.7,1-1.1,2.2-1.1,3.6c0,0.8,0.2,1.4,0.5,1.8c0.3,0.4,0.6,0.6,1,0.6
		c0.3,0,0.6-0.1,1.1-0.3c0.7-0.2,1.3-0.4,1.7-0.4c1,0,2,0.4,2.8,1.2c0.8,0.8,1.2,1.8,1.2,2.9c0,1.3-0.4,2.4-1.2,3.1
		c-1.1,1-2.4,1.5-3.9,1.5c-1.8,0-3.3-0.7-4.7-2.2c-1.4-1.5-2.1-3.3-2.1-5.5c0-3.1,1.1-5.9,3.4-8.4C26.3,12.3,28.6,11,31.5,9.9z"/>
</g>
</svg>
