<?xml version="1.0" encoding="utf-8"?>
<!-- Generator: Adobe Illustrator 21.0.0, SVG Export Plug-In . SVG Version: 6.00 Build 0)  -->
<svg version="1.1" id="Слой_1" xmlns="http://www.w3.org/2000/svg" xmlns:xlink="http://www.w3.org/1999/xlink" x="0px" y="0px"
	 viewBox="0 0 22 22" style="enable-background:new 0 0 22 22;" xml:space="preserve">
<path fill="currentColor" d="M1,10.5l4.8,1.8l1.9,5.9c0.1,0.4,0.6,0.5,0.9,0.3l2.6-2.1c0.3-0.2,0.6-0.2,1,0l4.8,3.5c0.4,0.2,0.8,0.1,0.9-0.4
	l3.5-16.9c0-0.4-0.4-0.7-0.9-0.6L1,9.5C0.5,9.7,0.6,10.3,1,10.5z M7.4,11.3l9.3-5.7c0.1-0.1,0.4,0.1,0.2,0.3L9.2,13
	c-0.3,0.3-0.4,0.6-0.5,0.9l-0.2,1.9c0,0.3-0.4,0.3-0.5,0l-1-3.6C6.8,12,7,11.6,7.4,11.3z"/>
</svg>
