<?xml version="1.0" encoding="utf-8"?>
<!-- Generator: Adobe Illustrator 21.0.0, SVG Export Plug-In . SVG Version: 6.00 Build 0)  -->
<svg version="1.1" id="Слой_1" xmlns="http://www.w3.org/2000/svg" xmlns:xlink="http://www.w3.org/1999/xlink" x="0px" y="0px"
	 viewBox="0 0 22 22" style="enable-background:new 0 0 22 22;" xml:space="preserve">

	<path fill="currentColor" d="M11,0.3c-6,0-11,4.9-11,11c0,4.8,3.1,8.9,7.5,10.4c0.5,0.1,0.8-0.2,0.8-0.5c0-0.2,0-0.9,0-1.8
		c-3.1,0.7-3.7-1.5-3.7-1.5c-0.5-1.3-1.2-1.7-1.2-1.7c-1-0.7,0.1-0.6,0.1-0.6c1.1,0.1,1.7,1.1,1.7,1.1c1,1.7,2.6,1.2,3.2,0.9
		c0.1-0.7,0.4-1.2,0.7-1.5c-2.4-0.3-5-1.2-5-5.4c0-1.2,0.5-2.2,1.1-3C5.1,7.4,4.7,6.4,5.3,4.8c0,0,0.9-0.3,3.1,1.1
		c0.8-0.2,1.8-0.4,2.8-0.4S13,5.8,13.8,6c2.1-1.5,3-1.1,3-1.1c0.6,1.5,0.2,2.6,0.1,2.9c0.7,0.8,1.1,1.8,1.1,3c0,4.2-2.6,5.1-5,5.4
		c0.4,0.3,0.8,1,0.8,2.1c0,1.5,0,2.7,0,3s0.2,0.6,0.8,0.5c4.4-1.5,7.5-5.6,7.5-10.4C22,5.2,17,0.3,11,0.3z"/>
</svg>
