<?xml version="1.0" encoding="utf-8"?>
<!-- Generator: Adobe Illustrator 21.0.0, SVG Export Plug-In . SVG Version: 6.00 Build 0)  -->
<svg version="1.1" id="Слой_1" xmlns="http://www.w3.org/2000/svg" xmlns:xlink="http://www.w3.org/1999/xlink" x="0px" y="0px"
	 viewBox="0 0 22 22" style="enable-background:new 0 0 22 22;" xml:space="preserve">
<path fill="currentColor" d="M20.9,4.8c-0.8,0.3-1.6,0.5-2.3,0.6c0.8-0.5,1.4-1.2,1.7-2.3c-0.8,0.5-1.7,0.8-2.6,1.1
	C17.1,3.4,16.1,3,14.9,3c-2.3,0-4,1.7-4,4c0,0.3,0,0.6,0.1,0.9C7.7,7.7,4.7,6.2,2.7,3.7C2.3,4.3,2.1,5,2.1,5.8
	c0,1.4,0.8,2.6,1.7,3.3c-0.6,0-1.2-0.2-1.9-0.5c0,0,0,0,0,0.1c0,2,1.4,3.6,3.2,3.9c-0.3,0.1-0.8,0.1-1.1,0.1s-0.5,0-0.8-0.1
	c0.5,1.7,2,2.8,3.7,2.8c-1.4,1.1-3.1,1.7-5,1.7c-0.3,0-0.6,0-0.9-0.1C2.8,18.2,5,19,7.3,19c7.5,0,11.5-6.1,11.5-11.5
	c0-0.2,0-0.3,0-0.5C19.7,6.4,20.4,5.7,20.9,4.8z"/>
</svg>
