<?xml version="1.0" encoding="utf-8"?>
<!-- Generator: Adobe Illustrator 21.0.0, SVG Export Plug-In . SVG Version: 6.00 Build 0)  -->
<svg version="1.1" id="Слой_1" xmlns="http://www.w3.org/2000/svg" xmlns:xlink="http://www.w3.org/1999/xlink" x="0px" y="0px"
	 viewBox="0 0 22 22" style="enable-background:new 0 0 22 22;" xml:space="preserve">
<g>
	<g>
		<path fill="currentColor" class="st0" d="M6,20H2.3V8H6V20z M4.2,6.3C3,6.3,2,5.4,2,4.2C2,3,3,2,4.2,2c1.2,0,2.2,1,2.2,2.2C6.3,5.4,5.4,6.3,4.2,6.3z
			 M20,20h-3.7v-5.8c0-1.4,0-3.2-1.9-3.2c-1.9,0-2.2,1.5-2.2,3.1V20H8.4V8h3.6v1.6H12c0.5-0.9,1.7-1.9,3.5-1.9
			c3.8,0,4.5,2.5,4.5,5.7V20z"/>
	</g>
</g>
</svg>
