<?xml version="1.0" encoding="utf-8"?>
<!-- Generator: Adobe Illustrator 21.0.0, SVG Export Plug-In . SVG Version: 6.00 Build 0)  -->
<svg version="1.1" id="Слой_1" xmlns="http://www.w3.org/2000/svg" xmlns:xlink="http://www.w3.org/1999/xlink" x="0px" y="0px"
	 viewBox="0 0 30 30" style="enable-background:new 0 0 30 30;" xml:space="preserve">
<g>
	<path fill="#FFFFFF" d="M15,27.5C8.1,27.5,2.5,21.9,2.5,15S8.1,2.5,15,2.5S27.5,8.1,27.5,15S21.9,27.5,15,27.5z"/>
	<path fill="#E0DDD5" d="M15,5c5.5,0,10,4.5,10,10s-4.5,10-10,10S5,20.5,5,15S9.5,5,15,5 M15,0C6.7,0,0,6.7,0,15s6.7,15,15,15
		s15-6.7,15-15S23.3,0,15,0L15,0z"/>
</g>
</svg>
