<?xml version="1.0" encoding="utf-8"?>
<!-- Generator: Adobe Illustrator 21.0.0, SVG Export Plug-In . SVG Version: 6.00 Build 0)  -->
<svg version="1.1" id="Слой_1" xmlns="http://www.w3.org/2000/svg" xmlns:xlink="http://www.w3.org/1999/xlink" x="0px" y="0px"
	 viewBox="0 0 29 29" style="enable-background:new 0 0 29 29;" xml:space="preserve">
<path fill="#fff;" d="M17,3h-1h-2H9C6.8,3,5,4.8,5,7v15c0,2.2,1.8,4,4,4h11c2.2,0,4-1.8,4-4v-9v-2v-1L17,3z M22,22c0,1.1-0.9,2-2,2H9
	c-1.1,0-2-0.9-2-2V7c0-1.1,0.9-2,2-2h5v8h8V22z M16,11V5h0.2l5.8,5.8V11H16z"/>
</svg>
