<?xml version="1.0" encoding="utf-8"?>
<!-- Generator: Adobe Illustrator 21.0.0, SVG Export Plug-In . SVG Version: 6.00 Build 0)  -->
<svg version="1.1" id="Слой_1" xmlns="http://www.w3.org/2000/svg" xmlns:xlink="http://www.w3.org/1999/xlink" x="0px" y="0px"
	 viewBox="0 0 440 440" style="enable-background:new 0 0 440 440;" xml:space="preserve">
<style type="text/css">
	.st0{fill:#BEAF90;}
	.st1{fill:#202634;}
	.st2{fill:#FFFFFF;}
</style>
<g>
	<g>
		<path class="st0" d="M224,110.6c0.1,0.1,0.3,0.1,0.4,0.1c0.4,0,0.7-0.2,0.9-0.6c4.3-9.2,9.8-18,16.3-26.3c0.3-0.4,0.3-1.1-0.2-1.4
			c-0.4-0.3-1.1-0.3-1.4,0.2c-6.6,8.4-12.2,17.3-16.6,26.7C223.3,109.8,223.5,110.4,224,110.6z"/>
		<path class="st0" d="M234.7,127.2c0.9,0.1,1.8,0.3,2.7,0.4c0.2,0,0.3,0.1,0.5,0.1C249,107,267,88.7,288.1,76.3
			c-0.6-0.8-1.1-1.7-1.4-2.6c-21.6,12.7-40.1,31.5-51.6,52.8C234.9,126.7,234.8,126.9,234.7,127.2z"/>
		<path class="st0" d="M143.8,146.2c0.2,0.4,0.5,0.6,0.9,0.6c0.1,0,0.3,0,0.4-0.1c0.5-0.2,0.7-0.8,0.5-1.3
			c-2.9-6.5-5.2-13.4-7.1-21.4c-0.1-0.5-0.7-0.9-1.2-0.7c-0.5,0.1-0.9,0.7-0.7,1.2C138.4,132.5,140.8,139.6,143.8,146.2z"/>
		<path class="st0" d="M290.3,146c-2.6,1.2-5.1,2.5-7.5,3.9c0.5,0.5,1,0.9,1.5,1.4c2.2-1.3,4.5-2.4,6.8-3.6c0.5-0.2,0.7-0.8,0.5-1.3
			C291.4,146,290.8,145.8,290.3,146z"/>
		<path class="st0" d="M253.5,131.5c-0.1,0.2-0.3,0.4-0.4,0.5c0.7,0.2,1.3,0.5,2,0.7c9.8-11.8,22.5-22.4,36.8-30.5
			c0.5-0.3,0.6-0.9,0.4-1.4c-0.3-0.5-0.9-0.6-1.4-0.4C276.3,108.8,263.4,119.5,253.5,131.5z"/>
		<path class="st0" d="M149.9,157.5c0.5-0.5,0.9-1,1.4-1.6c-0.4-0.7-0.8-1.3-1.2-2c-0.3-0.5-0.9-0.6-1.4-0.4
			c-0.5,0.3-0.6,0.9-0.4,1.4C148.8,155.9,149.4,156.7,149.9,157.5z"/>
		<path class="st0" d="M219.2,126c0.7-2.3,1.5-4.6,2.3-6.9c0.2-0.5-0.1-1.1-0.6-1.3c-0.5-0.2-1.1,0.1-1.3,0.6
			c-0.9,2.5-1.8,5.1-2.6,7.6C217.8,126,218.5,126,219.2,126z"/>
		<path class="st0" d="M354.1,182.3c-16.3-4.1-33.2-5.3-48.8-3.4c-0.2,0-0.4,0.1-0.7,0.1c0.3,0.6,0.6,1.3,0.9,1.9
			c15.4-1.9,32-0.7,48,3.3c0.5,0.1,1.1-0.2,1.2-0.7C354.9,182.9,354.6,182.4,354.1,182.3z"/>
		<path class="st0" d="M162.7,145.5c0.8-0.6,1.7-1.3,2.5-1.9c-2.3-6.3-4.1-12.9-5-19.7c-2.5-18.3-1.9-35.7,1.6-51.8
			c-1-0.1-2-0.3-2.9-0.6c-3.6,16.4-4.1,34.1-1.6,52.8C158.3,131.7,160.2,138.8,162.7,145.5z"/>
		<path class="st0" d="M180.8,134.6c-1.1-6.7-1.5-13.6-1.1-20.5c0.6-9.3,1.9-18.4,3.9-27c0.1-0.5-0.2-1.1-0.7-1.2
			c-0.5-0.1-1.1,0.2-1.2,0.7c-2,8.7-3.4,17.9-4,27.3c-0.5,7.3,0,14.5,1.2,21.5C179.5,135.2,180.2,134.9,180.8,134.6z"/>
		<path class="st0" d="M201.7,127.8c1.7-17.1,7.3-34.5,16-50.2c-1.5-0.8-2.8-1.8-4.1-2.9c-9.2,16.6-15.1,34.9-16.9,53
			c0,0.4-0.1,0.8-0.1,1.2C198.2,128.6,199.9,128.2,201.7,127.8z"/>
		<path class="st0" d="M309.6,138.7c-3.6,1.1-7.2,2.3-10.6,3.6c-0.5,0.2-0.8,0.8-0.6,1.3c0.2,0.4,0.5,0.6,0.9,0.6
			c0.1,0,0.2,0,0.4-0.1c3.4-1.3,6.9-2.5,10.5-3.5c0.5-0.2,0.8-0.7,0.7-1.2C310.6,138.9,310.1,138.6,309.6,138.7z"/>
		<path class="st0" d="M330,224.4c-0.5-0.2-1.1,0-1.3,0.5c-0.2,0.5,0,1.1,0.5,1.3c3.2,1.4,6.3,2.9,9.4,4.5c0.2,0.1,0.3,0.1,0.5,0.1
			c0.4,0,0.7-0.2,0.9-0.5c0.3-0.5,0.1-1.1-0.4-1.4C336.4,227.4,333.2,225.8,330,224.4z"/>
		<path class="st0" d="M365.2,213.9c-16.5-9.1-34.7-14.9-52.7-16.7c-0.4,0-0.8-0.1-1.3-0.1c0.4,1.7,0.8,3.4,1.1,5.1
			c17,1.7,34.3,7.2,49.9,15.8C363.2,216.5,364.1,215.1,365.2,213.9z"/>
		<path class="st0" d="M319.2,136.3c-0.5,0.1-0.9,0.7-0.8,1.2c0.1,0.5,0.5,0.8,1,0.8c0.1,0,0.1,0,0.2,0c3.4-0.7,6.8-1.4,10.3-1.8
			c0.5-0.1,0.9-0.6,0.8-1.1c-0.1-0.5-0.6-0.9-1.1-0.8C326.1,134.9,322.6,135.5,319.2,136.3z"/>
		<path class="st0" d="M148.5,292.3c-2.8,1.5-5.7,2.8-8.7,4c-0.5,0.2-0.8,0.8-0.6,1.3c0.2,0.4,0.5,0.6,0.9,0.6c0.1,0,0.2,0,0.4-0.1
			c3-1.2,6-2.5,8.8-4.1c0.5-0.3,0.7-0.9,0.4-1.3C149.6,292.2,149,292,148.5,292.3z"/>
		<path class="st0" d="M267.8,139c1.8,1.1,3.6,2.2,5.3,3.4c23.7-19.2,56.2-30.1,86.5-29.2c0.3-2,0.8-4,1.4-5.9
			c-32.3-1.3-67.2,10.3-92.3,31C268.3,138.4,268.1,138.7,267.8,139z"/>
		<path class="st0" d="M320.7,222.9c0.1,0,0.2,0.1,0.3,0.1c0.4,0,0.8-0.3,0.9-0.7c0.2-0.5-0.1-1.1-0.6-1.3c-2.4-0.9-4.9-1.7-7.4-2.4
			c0,0.7,0,1.4,0,2.1C316.3,221.4,318.5,222.1,320.7,222.9z"/>
		<path class="st0" d="M97.9,209.5c-0.3,0.5-0.1,1.1,0.4,1.4c9.1,5.4,18.3,9.3,27.9,11.9c0-0.7,0-1.4,0-2.1
			c-9.2-2.6-18.1-6.4-26.8-11.6C98.8,208.9,98.2,209,97.9,209.5z"/>
		<path class="st0" d="M85.7,257.8c8.9,2.1,18.3,3.5,27.9,4.1c1.9,0.1,3.8,0.2,5.6,0.2c5.4,0,10.8-0.5,16.1-1.4
			c-0.3-0.6-0.6-1.2-0.9-1.9c-6.8,1.1-13.7,1.5-20.7,1.1c-9.5-0.6-18.8-2-27.6-4.1c-0.5-0.1-1.1,0.2-1.2,0.7
			C84.9,257.1,85.2,257.7,85.7,257.8z"/>
		<path class="st0" d="M75.1,227.3c9.7,5.2,20.4,9.5,31.9,12.8c7.3,2.1,14.7,3.2,22.2,3.5c-0.4-1.7-0.8-3.4-1.2-5.1
			c-6.6-0.4-13.1-1.4-19.6-3.3c-11-3.2-21.2-7.2-30.5-12.1C77.1,224.6,76.1,226,75.1,227.3z"/>
		<path class="st0" d="M90.4,205.7c0.3,0,0.6-0.2,0.8-0.4c0.3-0.5,0.2-1.1-0.3-1.4c-2.6-1.8-5.1-3.6-7.6-5.5
			c-0.4-0.3-1.1-0.3-1.4,0.2c-0.3,0.4-0.3,1.1,0.2,1.4c2.5,1.9,5,3.8,7.7,5.5C90,205.6,90.2,205.7,90.4,205.7z"/>
		<path class="st0" d="M172.8,301.2c-1.8-1.1-3.6-2.2-5.3-3.3c-4.9,4.4-10.3,8.3-16.2,11.6c-28.3,15.7-53,19.2-70.9,18.7
			c-0.3,2-0.8,4-1.4,5.9c1.6,0.1,3.1,0.1,4.8,0.1c18.4,0,42.8-4.2,70.4-19.5C161,310.9,167.2,306.3,172.8,301.2z"/>
		<path class="st0" d="M289.3,283.6c-0.5,0.5-1,1-1.4,1.5c0.5,0.9,1,1.8,1.5,2.7c0.2,0.3,0.5,0.5,0.9,0.5c0.2,0,0.3,0,0.5-0.1
			c0.5-0.3,0.7-0.9,0.4-1.4C290.5,285.7,289.9,284.7,289.3,283.6z"/>
		<path class="st0" d="M238,312.3c-0.4,6.6-1.4,13.2-3.3,19.7c-3.1,10.8-7.1,20.9-11.9,30.1c1.5,0.8,2.9,1.8,4.2,2.8
			c5.1-9.6,9.3-20.2,12.6-31.5c2.1-7.4,3.2-14.8,3.6-22.2C241.4,311.6,239.7,311.9,238,312.3z"/>
		<path class="st0" d="M301.6,317.7c-0.5,0.1-0.9,0.7-0.8,1.2c0.9,4,1.7,8.2,2.3,12.4c0.1,0.5,0.5,0.9,1,0.9c0,0,0.1,0,0.1,0
			c0.5-0.1,0.9-0.6,0.9-1.1c-0.6-4.2-1.4-8.4-2.3-12.5C302.7,317.9,302.2,317.5,301.6,317.7z"/>
		<path class="st0" d="M276.8,295c-0.8,0.6-1.7,1.2-2.5,1.8c0,0,0,0,0,0c7.3,22.3,8.2,47.9,2.8,71.6c1,0.1,2,0.4,2.9,0.8
			c5.6-24.3,4.7-50.5-2.8-73.3C277,295.6,276.9,295.3,276.8,295z"/>
		<path class="st0" d="M260.6,304.8c-0.6,0.3-1.3,0.6-1.9,0.9c0,0.1,0,0.1,0,0.2c1.9,15.6,0.7,32.4-3.5,48.6
			c-0.1,0.5,0.2,1.1,0.7,1.2c0.1,0,0.2,0,0.2,0c0.4,0,0.9-0.3,1-0.8c4.2-16.5,5.4-33.6,3.5-49.4
			C260.7,305.3,260.7,305.1,260.6,304.8z"/>
		<path class="st0" d="M295.6,296.1c-0.2-0.5-0.8-0.7-1.3-0.5c-0.5,0.2-0.7,0.8-0.5,1.3c1.8,4.2,3.4,8.5,4.7,12.9
			c0.1,0.4,0.5,0.7,1,0.7c0.1,0,0.2,0,0.3,0c0.5-0.2,0.8-0.7,0.7-1.2C299.1,304.8,297.5,300.4,295.6,296.1z"/>
		<path class="st0" d="M313.7,235.7c-0.3-0.2-0.6-0.3-0.9-0.5c-0.1,0.7-0.2,1.4-0.4,2c-0.1,0.4-0.2,0.7-0.2,1.1c0,0,0,0,0,0
			c20.7,11.1,39,29.1,51.4,50c0.8-0.6,1.7-1.1,2.6-1.4C353.6,265.4,334.8,247.1,313.7,235.7z"/>
		<path class="st0" d="M295.4,162.6c-0.3,0.1-0.5,0.2-0.8,0.3c0.6,0.8,1.2,1.7,1.8,2.5c22.4-7.3,48.1-8.2,71.8-2.6
			c0.1-1,0.3-2,0.7-2.9C344.7,154.1,318.4,155,295.4,162.6z"/>
		<path class="st0" d="M308.6,254c-0.2-0.2-0.4-0.3-0.7-0.5c-0.2,0.7-0.5,1.3-0.8,1.9c0.1,0,0.1,0.1,0.2,0.1
			c12,9.9,22.6,22.8,30.8,37.4c0.2,0.3,0.5,0.5,0.9,0.5c0.2,0,0.3,0,0.5-0.1c0.5-0.3,0.7-0.9,0.4-1.4
			C331.6,277.2,320.7,264.1,308.6,254z"/>
		<path class="st0" d="M300.9,268c-1.1,1.8-2.2,3.5-3.4,5.2c4.3,4.9,8.1,10.2,11.3,15.9c15.4,27.9,19.1,52.2,18.7,70
			c2,0.3,4,0.8,6,1.5c0.6-18.7-3-44.7-19.4-74.3C310.4,279.6,305.9,273.5,300.9,268z"/>
		<path class="st0" d="M116.3,172.3c4.7,5.6,10,10.5,15.7,14.8c0.2-0.6,0.5-1.3,0.8-1.9c-5.4-4.1-10.5-8.8-14.9-14.2
			c-6.1-7.3-11.4-14.8-15.9-22.6c-0.3-0.5-0.9-0.6-1.4-0.4c-0.5,0.3-0.6,0.9-0.4,1.4C104.8,157.3,110.2,165,116.3,172.3z"/>
		<path class="st0" d="M123.9,282.4c7.4-1,14.6-2.9,21.4-5.5c-0.6-0.8-1.2-1.7-1.8-2.5c-6.4,2.4-13.1,4.2-20,5.1
			c-18.2,2.4-35.5,1.9-51.5-1.5c-0.1,1-0.5,2-0.9,2.9c9.7,2.1,19.8,3.2,30.3,3.2C108.7,283.9,116.2,283.4,123.9,282.4z"/>
		<path class="st0" d="M108.6,193.9c5.8,4.7,12,8.5,18.6,11.6c0.1-0.9,0.3-1.9,0.5-2.8c0-0.1,0-0.2,0.1-0.3
			c-6.1-3-11.9-6.5-17.2-10.9C96.1,180,84.5,167,76,152.9c-0.8,0.6-1.7,1.1-2.6,1.5C82.1,168.8,93.9,182.1,108.6,193.9z"/>
		<path class="st0" d="M135.5,115.7c0.1,0,0.1,0,0.2,0c0.5-0.1,0.9-0.6,0.8-1.2c-0.2-1.3-0.4-2.5-0.6-3.8c-0.1-0.5-0.6-0.9-1.1-0.8
			c-0.5,0.1-0.9,0.6-0.8,1.1c0.2,1.3,0.4,2.6,0.6,3.8C134.6,115.3,135,115.7,135.5,115.7z"/>
		<path class="st0" d="M138.7,173c1.1-1.8,2.2-3.6,3.3-5.4c-19.4-23.7-30.4-56.4-29.4-86.8c-2-0.3-4-0.8-5.9-1.4
			c-1.3,32.3,10.3,67.2,31,92.3C138,172.2,138.3,172.6,138.7,173z"/>
		<path class="st0" d="M131.2,299.1c-2.6,0.7-5.4,1.3-8.1,1.8c-0.5,0.1-0.9,0.6-0.8,1.2c0.1,0.5,0.5,0.8,1,0.8c0.1,0,0.1,0,0.2,0
			c2.8-0.5,5.6-1.1,8.3-1.9c0.5-0.1,0.8-0.7,0.7-1.2C132.3,299.3,131.7,299,131.2,299.1z"/>
		<path class="st0" d="M186.7,307.9c-0.7-0.2-1.3-0.5-1.9-0.8c-4.2,5.5-8.9,10.6-14.2,15.1c-7.4,6.2-15.2,11.7-23.1,16.3
			c-0.5,0.3-0.6,0.9-0.4,1.4c0.2,0.3,0.5,0.5,0.9,0.5c0.2,0,0.3,0,0.5-0.1c8-4.6,15.9-10.2,23.4-16.5
			C177.4,319,182.4,313.6,186.7,307.9z"/>
		<path class="st0" d="M109.3,303.7c-0.5,0.1-0.9,0.6-0.8,1.1c0.1,0.5,0.5,0.8,1,0.8c0.1,0,0.1,0,0.2,0c1.6-0.2,3.2-0.5,4.7-0.8
			c0.5-0.1,0.9-0.6,0.8-1.2c-0.1-0.5-0.6-0.9-1.2-0.8C112.5,303.2,110.9,303.5,109.3,303.7z"/>
		<path class="st0" d="M202.8,312.4c-0.3-0.1-0.6-0.1-0.9-0.2c-3,6.1-6.6,12-10.9,17.4c-11.5,14.3-24.4,25.8-38.4,34.3
			c0.6,0.8,1.1,1.7,1.5,2.6c14.3-8.7,27.5-20.5,39.2-35.1c4.7-5.8,8.5-12.1,11.7-18.7C204.3,312.6,203.5,312.5,202.8,312.4z"/>
		<path class="st0" d="M214.6,331.3c-0.5-0.2-1.1,0-1.3,0.4c-2.8,5.6-6.1,11.2-9.7,16.6c-0.3,0.5-0.2,1.1,0.3,1.4
			c0.2,0.1,0.4,0.2,0.6,0.2c0.3,0,0.6-0.2,0.8-0.4c3.7-5.5,7-11.1,9.9-16.8C215.3,332.1,215.1,331.5,214.6,331.3z"/>
		<path class="st0" d="M220.2,314c-0.8,2.8-1.8,5.6-2.9,8.4c-0.2,0.5,0,1.1,0.5,1.3c0.1,0.1,0.3,0.1,0.4,0.1c0.4,0,0.8-0.2,0.9-0.6
			c1.2-3,2.3-6.1,3.1-9.2C221.6,314,220.9,314,220.2,314z"/>
	</g>
	<g>
		<g>
			<ellipse transform="matrix(0.1837 -0.983 0.983 0.1837 -36.6013 395.9268)" class="st1" cx="220.1" cy="220" rx="90" ry="90"/>
		</g>
		<path class="st2" d="M157.3,226.1c0.6,0.1,1.2,0.2,1.9,0.2c2.3,0,4.5-0.8,6.2-2.2c5.5,3.6,12.9,6.9,21.9,7.9
			c1.4,0.2,2.7,0.2,4.1,0.2c3.9,0,7.7-0.6,11.1-1.5c3,4.8,7.9,8.4,13.8,9.5c1.1,0.2,2.1,0.3,3.2,0.3c-0.6,4.7-2.1,9.6-4.9,14.2
			c-3.7,5.9-8.8,9.7-13.7,12.2c-2.2-5.4-7-9.6-13.2-10.7c-1.1-0.2-2.2-0.3-3.3-0.3c-8.4,0-15.9,6-17.5,14.5
			c-1.8,9.7,4.6,19,14.2,20.8c1.1,0.2,2.2,0.3,3.3,0.3c8.4,0,15.9-6,17.5-14.5c0.4-2,0.4-3.9,0.1-5.8c5.7-2.8,11.8-7.1,16.2-14.1
			c3.5-5.4,5.1-11.3,5.7-16.8c6.3-1.2,11.8-5.3,14.7-11c2.5,1.9,4.9,4.4,6.7,7.5c3.3,5.5,3.3,12,2.5,17.2c-0.2,0-0.4,0-0.6,0h0
			l0,3.8c0.4,0,0.8,0,1.1,0.1c3.4,0.6,5.6,3.9,4.9,7.2c-0.5,2.9-3.1,5.1-6.1,5.1c-0.4,0-0.8,0-1.1-0.1c-3.4-0.6-5.6-3.9-4.9-7.2
			c0.5-2.9,3.1-5.1,6.1-5.1v-3.8c-4.7,0-8.9,3.3-9.8,8.1c-1,5.4,2.6,10.6,8,11.6c0.6,0.1,1.2,0.2,1.8,0.2c4.7,0,8.9-3.3,9.8-8.1
			c0.8-4.3-1.3-8.5-5-10.5c1.1-5.9,1.1-13.7-2.9-20.6c-2.4-4.1-5.6-7.2-8.8-9.5c0.1-0.4,0.2-0.8,0.3-1.3c0.9-4.6,0.1-9.2-1.8-13.1
			c3.7-1.3,8-2.1,12.8-2.1c9,0,16.9,3.1,22.7,6.3c-0.6,1.1-1,2.3-1.2,3.6c-1.4,7.4,3.5,14.5,10.9,15.9c0.8,0.2,1.7,0.2,2.5,0.2
			c6.4,0,12.2-4.6,13.4-11.1c1.4-7.4-3.5-14.5-10.9-15.9c-0.8-0.2-1.7-0.2-2.5-0.2c-3.7,0-7.1,1.5-9.6,4c-6.4-3.6-15.1-7.1-25.3-7.1
			c-5.8,0-10.8,1.1-15.2,2.7c-3-3.7-7.2-6.4-12.3-7.3c-1.2-0.2-2.4-0.3-3.6-0.3c0.6-4.7,2-9.6,5-14.3c5.1-8.1,12.4-12.7,18.5-15.2
			c1.6,3.2,4.6,5.7,8.4,6.4c0.7,0.1,1.5,0.2,2.2,0.2c5.6,0,10.6-4,11.6-9.7c1.2-6.4-3-12.6-9.5-13.8c-0.7-0.1-1.5-0.2-2.2-0.2
			c-5.6,0-10.6,4-11.6,9.7c-0.2,1.1-0.2,2.2-0.2,3.2c-6.7,2.8-15,7.9-20.9,17.1c-3.6,5.6-5.2,11.5-5.8,17c-5.9,1.2-11.1,5.1-14,10.4
			c-3.5-2.4-7.2-5.6-10.3-9.6c-5.5-7-7.2-14.5-7.4-20.8c0.1,0,0.2,0,0.2,0c7.2,0,13.5-5.1,14.9-12.4c1.5-8.2-3.9-16.2-12.1-17.7
			c-0.9-0.2-1.9-0.3-2.8-0.3c-7.2,0-13.5,5.1-14.9,12.4c-1.4,7.6,3.1,15,10.3,17.2c0.1,7.1,1.9,15.9,8.4,24.2
			c3.7,4.8,8,8.4,12.1,11.1c-0.2,0.6-0.3,1.3-0.5,1.9c-0.7,3.7-0.3,7.3,0.8,10.6c-4,1-8.4,1.5-12.8,1c-8-0.9-14.6-3.8-19.6-7
			c0.4-0.8,0.7-1.7,0.9-2.7c1-5.5-2.6-10.7-8-11.7c-0.6-0.1-1.2-0.2-1.9-0.2c-4.7,0-9,3.4-9.9,8.2
			C148.2,219.8,151.8,225.1,157.3,226.1z M182.4,175.3c-5.9-1.1-9.8-6.8-8.7-12.7c1-5.1,5.5-8.9,10.7-8.9h0c0.7,0,1.3,0.1,2,0.2
			c2.9,0.5,5.3,2.1,7,4.5c1.6,2.4,2.3,5.3,1.7,8.1c-1,5.1-5.5,8.9-10.7,8.9C183.7,175.5,183,175.4,182.4,175.3z M246.3,163.1
			c0.7-3.8,4.1-6.6,7.9-6.6h0c0.5,0,1,0,1.5,0.1c4.4,0.8,7.3,5.1,6.5,9.4c-0.7,3.8-4.1,6.6-7.9,6.6c-0.5,0-1,0-1.5-0.1
			C248.4,171.7,245.5,167.5,246.3,163.1z M277.1,219.3c0.8-4.4,4.7-7.6,9.2-7.6c0.6,0,1.2,0.1,1.7,0.2c5.1,0.9,8.4,5.8,7.5,10.9
			c-0.8,4.4-4.7,7.6-9.2,7.6c-0.6,0-1.2-0.1-1.7-0.2C279.5,229.3,276.1,224.4,277.1,219.3z M197.6,276.3c-1.2,6.4-6.8,11-13.3,11
			c-0.8,0-1.7-0.1-2.5-0.2c-3.5-0.7-6.6-2.7-8.7-5.6c-2-3-2.8-6.6-2.1-10.1c1.2-6.4,6.8-11,13.3-11c0.8,0,1.7,0.1,2.5,0.2
			c3.5,0.7,6.6,2.7,8.7,5.6C197.5,269.2,198.3,272.7,197.6,276.3z M152.9,215.1c0.6-3,3.2-5.1,6.2-5.1c0.4,0,0.8,0,1.2,0.1
			c3.4,0.6,5.7,3.9,5,7.3c-0.6,3-3.2,5.1-6.2,5.1c-0.4,0-0.8,0-1.2-0.1C154.5,221.8,152.3,218.5,152.9,215.1z"/>
	</g>
	<g>
		<g>
			<circle class="st1" cx="119.5" cy="39" r="38.5"/>
		</g>
		<g>
			<circle class="st1" cx="401.5" cy="120" r="38.5"/>
		</g>
		<g>
			<circle class="st1" cx="387.5" cy="232.4" r="25"/>
		</g>
		<g>
			<circle class="st1" cx="52.5" cy="209" r="25"/>
		</g>
		<g>
			<circle class="st1" cx="208.7" cy="387.5" r="25"/>
		</g>
		<g>
			<circle class="st1" cx="320.5" cy="401" r="38.5"/>
		</g>
		<g>
			<circle class="st1" cx="38.5" cy="321" r="38.5"/>
		</g>
		<g>
			<circle class="st1" cx="232.1" cy="52.5" r="25"/>
		</g>
		<g>
			<path class="st2" d="M132,37c3.1-1.8,4.8-5.3,4.3-8.9c-0.7-5.5-7.3-7.6-12.4-8v-8.3h-5.1V20h-3.4v-8.2h-5.1V20H100v5.3h3.8
				c1.7,0,2.5,0.5,2.5,1.9v22.7c0,1.9-0.9,2.5-2,2.5h-3.9v5.4h9.9v8.4h5.1v-8.4h3.4v8.4h5v-8.4h1.1c10.5,0,14-5.1,14-12.1
				C138.9,41.5,136,38,132,37z M115.3,25.6h3.6c2.5,0,7.6,0.4,7.6,4.6c0.2,2.7-1.8,5.1-4.5,5.4h-6.7L115.3,25.6z M121,51.8L121,51.8
				l-5.6,0V40.9h6.5c1.5,0,7.3,0.5,7.3,4.6S126.4,51.8,121,51.8z"/>
		</g>
		<polygon class="st2" points="397.2,131.5 419.8,131.5 417.3,140.8 385.1,140.8 389.2,125.1 379.9,128.5 382.8,117.5 392.2,114.1 
			396.8,96.5 406.5,96.5 402.9,110.1 413,106.3 410.1,117.3 400,121.1 		"/>
		<path class="st2" d="M41.7,301.5c-2.7,2.7-3.8,6.5-3.1,10.2l-0.2,0.8c-0.5,1.5-2.1,2.4-3.6,1.9c-0.4-0.1-0.8-0.3-1.1-0.6l-0.7-0.6
			c-1.1-2.8-3.2-4.9-5.9-6.1c-5.7-2.5-12.3,0.1-14.8,5.8c-2.5,5.7,0.1,12.3,5.8,14.8c4.2,1.8,9,0.9,12.3-2.2c1.6-0.2,3,1,3.2,2.6
			c0,0.2,0,0.4,0,0.6c-2.3,2.4-3.5,5.7-3.1,9.1c0.4,3.4,2.4,6.5,5.3,8.3c3.6,2.3,8.2,2.3,11.8,0c2.9-1.8,4.9-4.9,5.3-8.3
			c0.4-3.4-0.8-6.8-3.2-9.2c-1.1-1.1-2.3-1.9-3.7-2.4l-0.6-0.7c-1.1-1.2-1-3,0.2-4.1c0.3-0.3,0.7-0.5,1.1-0.6l0.8-0.2
			c6.1,1.3,12-2.7,13.3-8.8c0.6-2.8,0.1-5.6-1.4-8.1c-1.8-3-4.9-5-8.4-5.4C47.6,297.9,44.2,299.1,41.7,301.5z M55.5,306.1
			L55.5,306.1c1.9,3.2,0.9,7.3-2.3,9.3c-1.6,0.9-3.5,1.2-5.2,0.7l-0.6-0.2l-2,0.6c-3.9,1.2-6.1,5.3-5,9.2c0.3,1,0.8,2,1.6,2.8
			l1.4,1.6l0.6,0.2c3,1,4.9,4,4.5,7.1c-0.2,2.1-1.4,3.9-3.2,5c-2.1,1.3-4.9,1.3-7,0c-1.8-1.1-3-3-3.2-5c-0.2-2,0.5-4.1,1.9-5.5
			l0.6-0.5l0.2-0.7c1.2-3.9-1-8-4.9-9.2c-1.4-0.4-3-0.4-4.4,0l-0.7,0.2l-0.5,0.6c-2.7,2.6-6.9,2.6-9.6,0s-2.6-6.9,0-9.6
			c0.3-0.3,0.6-0.5,0.9-0.7c1.9-1.3,4.4-1.6,6.6-0.6c1.7,0.7,3.1,2.2,3.7,4l0.2,0.6l1.6,1.4c3.1,2.7,7.7,2.4,10.5-0.6
			c0.7-0.8,1.2-1.8,1.6-2.8l0.6-2l-0.2-0.6c-0.9-3.6,1.2-7.3,4.8-8.3C50.9,302.2,54,303.5,55.5,306.1z"/>
		<path class="st2" d="M245.1,63.2l-3.6-17.2l0-0.1l-0.1-0.1l-8.4-11.5l-0.4-0.6l-0.4,0.6l-8.4,11.7l-0.1,0.1l0,0.1l-3.6,17.1
			l-0.1,0.3l0.3,0.2l12,7.3l0.3,0.2L233,71l12-7.3l0.3-0.2L245.1,63.2z M230.5,66.7l-7.3-4.4l2.2-10.9L230.5,66.7z M238.7,46.5
			l-5.9,17.9l-5.9-17.9l5.9-8.2L238.7,46.5z M234.9,66.7l5.1-15.3l2.2,10.9L234.9,66.7z"/>
		<g>
			<path class="st2" d="M374.3,238.2L374.3,238.2l0.5-0.2l1.1-0.6l1.1-0.6l0.4-0.2l0,0l19.8-10.1l2.3-1.2l4.7-2.4l0.3-0.1v-0.3v-2.8
				v-0.8l-0.7,0.4l-4.7,2.4l-4,2l-18.5,9.4c0-0.2,0-0.5,0-0.7c0-2.9,1.1-5.6,3.2-7.7c2-2,4.7-3.2,7.6-3.2l0.1,0
				c1.9,0,3.7,0.5,5.3,1.4l0.2,0.1l0.2-0.1l2.3-1.2l0.3-0.2l0.7-0.4l-0.7-0.5c-0.9-0.6-1.8-1.2-2.9-1.6c-1.8-0.8-3.7-1.1-5.6-1.1
				s-3.8,0.4-5.6,1.1c-1.7,0.7-3.3,1.8-4.6,3.1c-1.3,1.3-2.4,2.9-3.1,4.6c-0.8,1.8-1.1,3.7-1.1,5.6c0,0.4,0,0.7,0,1.1
				c0.1,0.8-0.4,1.6-1.1,2l-1.2,0.6l-0.3,0.1v0.3v2.8v0.8l0.7-0.4L374.3,238.2z"/>
			<path class="st2" d="M403.7,224.9l-26,13.2l-2.3,1.2l-4.7,2.4l-0.3,0.1v0.3v2.8v0.8l0.7-0.4l4.6-2.4l4-2l18.5-9.4
				c0,0.2,0,0.5,0,0.7c0,2.9-1.1,5.6-3.2,7.7c-2,2-4.7,3.2-7.6,3.2l-0.1,0c-1.9,0-3.7-0.5-5.3-1.4l-0.2-0.1l-0.2,0.1l-0.1,0.1
				l-2.5,1.3l-0.7,0.4l0.7,0.5c0.9,0.6,1.9,1.2,2.9,1.6c1.8,0.8,3.7,1.1,5.6,1.1c1.9,0,3.8-0.4,5.6-1.1c1.7-0.7,3.3-1.8,4.6-3.1
				c1.3-1.3,2.4-2.9,3.1-4.6c0.8-1.8,1.1-3.7,1.1-5.6c0-0.4,0-0.7,0-1.1c-0.1-0.8,0.4-1.6,1.1-2l1.2-0.6l0.3-0.1v-0.3v-2.8v-0.8
				L403.7,224.9z"/>
		</g>
		<g>
			<path class="st2" d="M320.5,410l-16.3-7.7l16.3,28.4l16.3-28.4L320.5,410z"/>
			<path class="st2" d="M335,396.5l-14.5-25.2L306,396.5l14.5-6.9L335,396.5z"/>
			<path class="st2" d="M307.2,399.8l13.3,6.3l13.3-6.3l-13.3-6.3L307.2,399.8z"/>
		</g>
		<g>
			<path class="st2" d="M202.3,377.9c0.2,0.2,0.5,0.3,0.8,0.3c0.2,0,0.4,0,0.5-0.1c0.5-0.2,0.8-0.6,0.8-1.1c0.1-0.5-0.2-0.9-0.6-1.2
				c-0.4-0.3-0.9-0.3-1.3,0c-0.4,0.2-0.6,0.6-0.7,1C201.8,377.2,202,377.6,202.3,377.9z"/>
			<path class="st2" d="M203.1,385.1c-0.7,0.2-1.3,0.7-1.6,1.4c-0.3,0.7-0.3,1.4,0,2.1c0.3,0.7,0.9,1.2,1.7,1.3
				c0.2,0,0.4,0.1,0.6,0.1c0.6,0,1.2-0.2,1.6-0.6c0.9-0.7,1.1-2.1,0.6-3.1C205.4,385.3,204.2,384.8,203.1,385.1z"/>
			<path class="st2" d="M204.3,383.8c0.3,0.6,0.8,1,1.4,1.2c0.3,0.1,0.5,0.1,0.8,0.1c0.4,0,0.8-0.1,1.1-0.3c0.6-0.3,1-0.8,1.2-1.5
				c0.2-0.6,0.1-1.3-0.2-1.8c-0.5-1.1-2.1-1.7-3.3-1.1c-0.6,0.3-1.1,0.8-1.3,1.4C204,382.6,204,383.2,204.3,383.8z"/>
			<path class="st2" d="M196.8,394.1c-0.4-0.2-0.8-0.3-1.1,0c-0.3,0.2-0.5,0.5-0.5,0.9c0,0.4,0.2,0.8,0.5,1c0.2,0.1,0.4,0.2,0.6,0.2
				c0.2,0,0.3,0,0.5-0.1c0.4-0.2,0.6-0.5,0.6-0.8C197.4,394.8,197.2,394.4,196.8,394.1z"/>
			<path class="st2" d="M195.5,380.8c0.2,0.2,0.4,0.2,0.7,0.2c0.1,0,0.3,0,0.4-0.1c0.4-0.1,0.6-0.4,0.7-0.7c0.1-0.4,0-0.9-0.4-1.2
				c-0.4-0.3-0.8-0.3-1.2-0.1c-0.3,0.2-0.5,0.5-0.6,0.9C195.1,380.2,195.2,380.6,195.5,380.8z"/>
			<path class="st2" d="M192.3,386.7L192.3,386.7c-0.3,0.1-0.5,0.4-0.5,0.6c-0.1,0.3,0,0.5,0.2,0.7c0.2,0.2,0.4,0.4,0.7,0.4
				c0.1,0,0.2,0,0.3,0c0.4-0.1,0.6-0.4,0.6-0.7c0.1-0.3-0.1-0.6-0.3-0.8C193,386.6,192.6,386.6,192.3,386.7z"/>
			<path class="st2" d="M200.6,373.9c0.1,0.1,0.2,0.1,0.4,0.1c0.2,0,0.3-0.1,0.5-0.2c0.3-0.2,0.4-0.5,0.4-0.7c0-0.3-0.1-0.6-0.4-0.7
				c-0.2-0.2-0.6-0.2-0.8-0.1c-0.4,0.1-0.6,0.4-0.6,0.8C200,373.4,200.2,373.8,200.6,373.9z"/>
			<path class="st2" d="M208.8,379.5L208.8,379.5c0.1,0,0.2,0,0.2,0c0.1,0,0.2,0,0.3,0c0.2,0,0.4,0,0.6-0.1c0.4-0.2,0.7-0.5,0.8-0.9
				c0.1-0.4,0.1-0.8-0.1-1.1c-0.2-0.4-0.6-0.7-1.3-0.9l0,0l0,0c-0.7,0.1-1.5,0.6-1.5,1.5C207.7,378.7,208.2,379.2,208.8,379.5z"/>
			<path class="st2" d="M214.1,385.1c-0.7,0.2-1.3,0.7-1.6,1.4c-0.3,0.7-0.3,1.5,0.1,2.1c0.3,0.6,0.9,1,1.6,1.2
				c0.2,0.1,0.4,0.1,0.6,0.1c0.5,0,1-0.1,1.3-0.4c0.5-0.3,0.9-0.9,1-1.6c0.1-0.6,0-1.3-0.3-1.8C216.4,385.2,215.2,384.8,214.1,385.1
				z"/>
			<path class="st2" d="M216.8,381.4c-0.5,0.2-0.8,0.7-0.8,1.3c0,0.6,0.2,1.1,0.7,1.3c0.2,0.2,0.5,0.2,0.8,0.2
				c0.3,0,0.5-0.1,0.8-0.2c0.5-0.3,0.8-0.8,0.8-1.3c0-0.5-0.3-1-0.7-1.3C217.8,381.2,217.2,381.1,216.8,381.4z"/>
			<path class="st2" d="M221.8,380.9c0.1,0.1,0.3,0.1,0.5,0.1c0.2,0,0.4-0.1,0.6-0.2c0.3-0.2,0.5-0.6,0.5-0.9c0-0.4-0.2-0.8-0.6-1
				c-0.4-0.2-0.8-0.2-1.1,0c-0.3,0.2-0.5,0.6-0.5,1C221.3,380.4,221.5,380.7,221.8,380.9z"/>
			<path class="st2" d="M209.8,381.6c-0.3,0.6-0.3,1.3-0.1,1.9c0.2,0.7,0.8,1.2,1.5,1.4c0.3,0.1,0.6,0.2,0.9,0.2
				c0.4,0,0.8-0.1,1.2-0.3c0.6-0.3,1-0.9,1.2-1.6c0.2-0.7,0-1.4-0.3-1.9c-0.6-0.9-1.8-1.4-2.9-1C210.6,380.5,210.1,381,209.8,381.6z
				"/>
			<path class="st2" d="M217.4,373.9c0.1,0,0.1,0,0.2,0c0.5,0,0.8-0.4,0.9-0.8l0,0l0,0c-0.1-0.4-0.3-0.7-0.6-0.8
				c-0.2-0.1-0.5-0.1-0.7,0c-0.4,0.1-0.6,0.6-0.5,0.9C216.7,373.5,216.9,373.9,217.4,373.9z"/>
			<path class="st2" d="M209.2,373.5c0.1,0,0.2,0,0.2,0c0.4-0.1,0.7-0.3,0.8-0.6c0.2-0.4,0.1-0.9-0.2-1.2c-0.3-0.4-0.8-0.4-1.2-0.2
				c-0.3,0.1-0.6,0.4-0.6,0.8c-0.1,0.4,0,0.8,0.3,1C208.7,373.4,208.9,373.5,209.2,373.5z"/>
			<path class="st2" d="M215.5,378.2c0.1,0,0.2,0,0.2,0l0,0c0.4-0.1,0.8-0.5,0.9-0.9c0.1-0.4,0.1-0.7-0.1-1
				c-0.2-0.4-0.6-0.7-1.2-0.7c0,0,0,0,0,0c-0.5,0-1,0.3-1.1,0.8c-0.2,0.4-0.2,0.9,0.1,1.3C214.6,378,215,378.2,215.5,378.2z"/>
			<path class="st2" d="M201.4,393.7c0.6-0.1,1-0.5,1.1-1c0.2-0.5,0.1-1-0.2-1.4c-0.4-0.4-0.9-0.7-1.4-0.6c-0.5,0.1-1,0.4-1.2,1
				c-0.2,0.5-0.1,1.1,0.3,1.5c0.3,0.3,0.7,0.5,1.1,0.5C201.2,393.7,201.3,393.7,201.4,393.7z"/>
			<path class="st2" d="M217.6,400.9L217.6,400.9L217.6,400.9c-0.4,0.1-0.7,0.3-0.8,0.6c-0.1,0.3-0.1,0.6,0.1,0.8
				c0.2,0.3,0.4,0.4,0.7,0.4c0.1,0,0.1,0,0.2,0c0.4-0.1,0.7-0.4,0.7-0.7C218.6,401.4,218.1,401,217.6,400.9z"/>
			<path class="st2" d="M218.4,391c-0.4-0.3-1-0.4-1.4-0.2c-0.5,0.2-0.9,0.7-1,1.3c-0.1,0.6,0.2,1.2,0.7,1.4
				c0.2,0.2,0.5,0.2,0.8,0.2c0.2,0,0.5-0.1,0.7-0.2c0.5-0.3,0.8-0.8,0.8-1.3C219,391.7,218.8,391.3,218.4,391z"/>
			<path class="st2" d="M216.1,397c-0.4-0.3-0.9-0.3-1.3,0c-0.4,0.2-0.6,0.6-0.7,1.1c0,0.5,0.2,0.9,0.5,1.1c0.2,0.2,0.5,0.3,0.8,0.3
				c0.2,0,0.4,0,0.6-0.1c0.5-0.2,0.8-0.7,0.8-1.1C216.8,397.7,216.5,397.2,216.1,397z"/>
			<path class="st2" d="M222.3,388.5c0.4-0.2,0.6-0.7,0.6-1.1c0-0.7-0.6-1.3-1.3-1.4c-0.8,0-1.4,0.7-1.4,1.5l0,0
				c0.1,0.3,0.3,0.7,0.7,0.9c0.2,0.1,0.4,0.1,0.6,0.1C221.8,388.7,222,388.7,222.3,388.5z"/>
			<path class="st2" d="M226.7,387.1c-0.1-0.2-0.3-0.4-0.5-0.5c-0.3-0.1-0.5,0-0.7,0.1c-0.4,0.2-0.5,0.7-0.4,1
				c0.1,0.4,0.4,0.6,0.8,0.6c0,0,0.1,0,0.1,0c0.3,0,0.5-0.1,0.7-0.4C226.8,387.7,226.9,387.4,226.7,387.1z"/>
			<path class="st2" d="M213.6,390.3c-0.6-0.5-1.4-0.6-2.1-0.5c-0.9,0.2-1.6,1-1.8,1.8c-0.2,0.6-0.1,1.3,0.3,1.9
				c0.4,0.6,1,1,1.7,1.1c0.1,0,0.3,0,0.4,0c0.6,0,1.1-0.2,1.6-0.6c0.6-0.5,0.9-1.2,0.9-1.9C214.5,391.5,214.2,390.8,213.6,390.3z"/>
			<path class="st2" d="M223.4,394.5L223.4,394.5c-0.3-0.3-0.5-0.6-0.9-0.6c0,0,0,0,0,0c-0.4-0.1-0.8,0.1-1,0.5
				c-0.2,0.3-0.3,0.8-0.1,1.1c0.1,0.3,0.4,0.6,0.8,0.6c0.1,0,0.1,0,0.2,0c0.3,0,0.6-0.1,0.8-0.4c0.3-0.3,0.3-0.8,0.2-1.2
				L223.4,394.5z"/>
			<path class="st2" d="M203.9,397c-0.4-0.3-0.9-0.3-1.2-0.1c-0.6,0.2-0.8,0.9-0.8,1.4l0,0l0,0c0.2,0.6,0.7,1,1.2,1.1
				c0.1,0,0.1,0,0.2,0c0.3,0,0.6-0.1,0.8-0.3c0.3-0.3,0.4-0.6,0.4-0.9C204.5,397.7,204.3,397.3,203.9,397z"/>
			<path class="st2" d="M210.1,395.7c-0.4-0.3-1-0.4-1.4-0.2c-0.5,0.2-0.9,0.6-0.9,1.2c-0.1,0.6,0.2,1.2,0.7,1.4
				c0.2,0.2,0.5,0.3,0.8,0.3c0.2,0,0.5-0.1,0.7-0.2c0.5-0.3,0.8-0.8,0.8-1.3C210.7,396.5,210.5,396,210.1,395.7z"/>
			<path class="st2" d="M201.1,401c-0.6-0.1-0.9,0.3-1.1,0.8l0,0l0,0c0,0.4,0.3,0.7,0.6,0.9c0.1,0.1,0.2,0.1,0.4,0.1
				c0.2,0,0.3,0,0.4-0.1c0.3-0.2,0.5-0.6,0.4-0.9C201.8,401.3,201.5,401,201.1,401z"/>
			<path class="st2" d="M201,384.3c0,0,0.1,0,0.1,0c0,0,0,0,0,0c0.9,0,1.4-0.8,1.5-1.6c-0.1-0.8-0.7-1.4-1.5-1.5
				c-0.7,0-1.4,0.5-1.5,1.3c-0.1,0.4,0.1,0.9,0.4,1.2C200.3,384.1,200.6,384.3,201,384.3z"/>
			<path class="st2" d="M196.6,386.3c-0.4,0.1-0.8,0.5-0.9,1c-0.1,0.5,0.1,1,0.4,1.2c0.2,0.2,0.5,0.3,0.9,0.3c0.1,0,0.2,0,0.4,0
				c0.5-0.1,0.8-0.4,0.9-0.8c0.2-0.4,0.1-0.9-0.3-1.3C197.6,386.2,197.1,386.1,196.6,386.3z"/>
			<path class="st2" d="M209.8,401.6c-0.3-0.2-0.6-0.2-1-0.1c-0.3,0.1-0.5,0.4-0.6,0.7c-0.1,0.3-0.1,0.7,0.2,1
				c0.2,0.3,0.5,0.4,0.8,0.4c0,0,0.1,0,0.1,0c0,0,0,0,0,0c0.4,0,0.7-0.3,0.9-0.5l0-0.1c0-0.2,0.1-0.3,0.1-0.5l0,0l0,0
				C210.2,402.2,210.1,401.8,209.8,401.6z"/>
			<path class="st2" d="M209,392.2c0-0.7-0.4-1.4-1-1.9c-0.6-0.5-1.4-0.6-2.1-0.5c-1.1,0.2-1.9,1.3-1.9,2.4c0,1.2,0.9,2.3,2,2.5
				c0.2,0,0.3,0.1,0.5,0.1c0.5,0,1.1-0.2,1.6-0.6C208.7,393.6,209.1,392.9,209,392.2z"/>
		</g>
		<g>
			<path class="st2" d="M56.4,196.4H45l-0.9,5.2l10.2,0c5,0,6.5,1.8,6.5,4.9c0,1.6-0.7,4.2-1,5c-0.8,2.3-2.4,4.9-8.3,4.8l-9.9,0
				l-0.9,5.2h11.3c4,0,5.7-0.5,7.5-1.3c4-1.8,6.3-5.8,7.3-10.9C68.1,201.9,66.3,196.4,56.4,196.4z"/>
			<path class="st2" d="M40.2,206.4c-3,0-3.4,1.9-3.7,3.1c-0.4,1.5-0.5,2.1-0.5,2.1h11.6c3,0,3.4-1.9,3.7-3.1
				c0.4-1.5,0.5-2.1,0.5-2.1H40.2z"/>
		</g>
	</g>
	<g>
		<g>
			<circle class="st1" cx="69.9" cy="145" r="6"/>
		</g>
		<g>
			<circle class="st1" cx="162.4" cy="62.2" r="6"/>
		</g>
		<g>
			<circle class="st1" cx="296" cy="70.3" r="6"/>
		</g>
		<g>
			<circle class="st1" cx="378.3" cy="163.6" r="6"/>
		</g>
		<g>
			<circle class="st1" cx="369.6" cy="296.3" r="6"/>
		</g>
		<g>
			<circle class="st1" cx="276" cy="378.4" r="6"/>
		</g>
		<g>
			<circle class="st1" cx="144.7" cy="370.1" r="6"/>
		</g>
		<g>
			<circle class="st1" cx="62.1" cy="276.4" r="6"/>
		</g>
	</g>
</g>
</svg>
