<?xml version="1.0" encoding="utf-8"?>
<!-- Generator: Adobe Illustrator 21.0.0, SVG Export Plug-In . SVG Version: 6.00 Build 0)  -->
<svg version="1.1" id="Слой_1" xmlns="http://www.w3.org/2000/svg" xmlns:xlink="http://www.w3.org/1999/xlink" x="0px" y="0px"
	 viewBox="0 0 440 440" style="enable-background:new 0 0 440 440;" xml:space="preserve">
<style type="text/css">
	.st0{fill:#0052B6;}
	.st1{fill:#BEAF90;}
	.st2{fill:#202634;}
	.st3{fill:#FFFFFF;}
</style>
<g>
	<path class="st0" d="M268.4,39.3c-0.3,0-6-0.8-11.4,0c-0.1,0-0.2,0-0.4,0c-1.2,0-2.2-0.9-2.4-2.1c-0.2-1.3,0.7-2.6,2-2.8
		c3.7-0.6,7.4-0.5,9.9-0.3c-1.6-18.8-17.3-33.7-36.1-33.7c-11.4,0-22.9,5.8-29.8,14.9c4.7,4,7.8,10,7.8,16.7c0,1.3-1.1,2.4-2.4,2.4
		s-2.4-1.1-2.4-2.4c0-6-3.1-11.2-7.8-14.3c-0.6-0.4-1.1-0.7-1.7-1c-0.2-0.1-0.3-0.2-0.5-0.2c-0.7-0.3-1.3-0.6-2-0.8
		c-0.1,0-0.2,0-0.3-0.1c-0.6-0.2-1.3-0.3-1.9-0.4c-0.2,0-0.4-0.1-0.6-0.1c-0.7-0.1-1.5-0.2-2.2-0.2c-9.4,0-17,7.6-17,17
		c0,0.2,0,0.4,0,0.6l0,0.5l0,0.4c0,0.3,0,0.6,0,0.9V36l-1.4,0.7c-9.1,4.3-15.6,14.8-15.6,24.9c0,14.5,11.8,26.3,26.3,26.3h34.4h0.3
		V66.6c-4.2-2.4-7-6.9-7-12.1c0-7.7,6.3-14,14-14s14,6.3,14,14c0,5.2-2.8,9.7-7,12.1v21.3h5.1h5.7c0.1,0,0.3,0,0.4,0l0.5,0l0.7,0
		c0.1,0,0.3,0,0.4,0h23.8c13.4,0,24.4-10.9,24.4-24.4C288.2,51.9,279.7,41.4,268.4,39.3z"/>
	<path class="st1" d="M46.1,160.5c0-0.5-0.1-1-0.1-1.5h12.7v1l1.1-1.1l33.3,33.3h17.2l-14.4-14.4c0.8-0.6,1.5-1.3,2.1-2.1l16.5,16.5
		h36.7c-0.5,1.1-1.2,2.1-2,3H91.8L58.5,162H46C46,161.6,46.1,161.1,46.1,160.5z M84.6,277.2l27.8-27.8v16.4c0.5-0.1,1-0.1,1.5-0.1
		s1,0.1,1.5,0.1v-19.4l12.4-12.4c-0.6-0.9-1-1.9-1.2-3l-43.3,43.3H46c0.1,0.5,0.1,1,0.1,1.5c0,0.5-0.1,1-0.1,1.5H84.6z M84.8,252.4
		l29.4-29.4h11.9c-0.1-2-0.1-4,0-6h-38l-34.4-34.4H15.9c0.1,0.5,0.1,1,0.1,1.5c0,0.5-0.1,1-0.1,1.5h36.5L83.8,217H23.7
		c0.2,1,0.3,2,0.3,3c0,1-0.1,2-0.3,3h86.2l-26.4,26.4H15.9c0.1,0.5,0.1,1,0.1,1.5s-0.1,1-0.1,1.5H84.8z M288.7,191.5h17l24.7-24.7
		l11.3,11.3h8.9c-0.1-0.5-0.1-1-0.1-1.5c0-0.5,0.1-1,0.1-1.5h-7.7l-10.4-10.4l4.5-4.5h57.1c-0.1-0.5-0.1-1.1-0.1-1.6
		c0-0.5,0-0.9,0.1-1.4h-58.3l-31.4,31.4h-16.6C288,189.6,288.3,190.6,288.7,191.5z M376.5,184.8l-18.1,18.1h-49.8
		c1.4,0.7,2.6,1.7,3.4,3h47.6l18.1-18.1h46.4c-0.1-0.5-0.1-1-0.1-1.5c0-0.5,0.1-1,0.1-1.5H376.5z M164.2,313.1l25.4-25.4
		c-1.2-0.3-2.4-0.5-3.8-0.5L162,311C162.8,311.5,163.6,312.3,164.2,313.1z M240.2,295.9c-0.5,0.9-0.9,1.9-1.3,3l7,7v47.6l14.2,14.2
		c0.6-0.8,1.3-1.5,2.2-2.1L249,352.3v-47.6L240.2,295.9z M357.7,324.4H327l-39.2-39.2c-1.4,1.4-2.8,2.8-4.3,4.2l10.5,10.5V335
		l34.3,34.3c0.6-0.8,1.3-1.5,2.1-2.1l-12.3-12.3h25.7l26.2,26.2c0.6-0.8,1.3-1.5,2.1-2.1L345,351.9h-29.9L297,333.8v-31l26.7,26.7
		c0.6,0.6,1.3,0.9,2.1,0.9h30.6l17,17c1.2-1.7,2.7-3,4.4-4.1l-18.1-18.1C359.2,324.7,358.5,324.4,357.7,324.4z M252,331.6l54.4,54.4
		c0.6-0.8,1.3-1.5,2.1-2.1l-54.4-54.4L252,331.6z M350.2,281.9l-43.3-43.3c-0.8,0.2-1.6,0.3-2.4,0.3c-0.2,0-0.4,0-0.6,0l-0.9,0
		l15.3,15.3v22.1l9.7,9.7c0.6-0.8,1.3-1.6,2-2.2l-8.7-8.7v-17.9l27.7,27.7H394c-0.1-0.5-0.1-1-0.1-1.5c0-0.5,0.1-1,0.1-1.5H350.2z
		 M424.1,259.5H361L324.5,223h11.6l16.1,16.1H379c-0.1-0.5-0.1-1-0.1-1.5c0-0.5,0.1-1,0.1-1.5h-25.6L340.3,223h76
		c-0.2-1-0.3-2-0.3-3c0-1,0.1-2,0.3-3H313.9c0.1,2,0.1,4,0,6h6.3l39.5,39.5h64.3c-0.1-0.5-0.1-1-0.1-1.5
		C424,260.5,424,260,424.1,259.5z M176.3,349.5c0.5-0.1,1-0.1,1.5-0.1c0.5,0,1,0.1,1.5,0.1V329l18.5-18.5l3.6-3.6
		c-0.3-0.9-0.4-1.9-0.3-2.9c0-0.4,0-0.7,0-1.1l-5.5,5.5l-19.4,19.4l-21.6,21.6v39l-11.2,11.2c0.8,0.6,1.5,1.3,2.1,2.1l12.1-12.1v-39
		l18.6-18.6V349.5z M223.2,313.9c-1.1,0-2.2,0.1-3.3,0.1c-0.9,0-1.8,0-2.7,0v18.2l-19.3,19.3v33.8l-21.7,21.7v16.8
		c0.6-0.1,1.2-0.2,1.9-0.2c0.4,0,0.8,0,1.1,0.1v-15.4l21.7-21.7v-33.8l16.3-16.3v79.5c1-0.2,2-0.3,3-0.3c1,0,2,0.1,3,0.3v-51.3
		l21.4,21.4v37.7c0.5-0.1,1-0.1,1.5-0.1c0.5,0,1,0.1,1.5,0.1v-34.7l18.9,18.9v15.8c0.5-0.1,1-0.1,1.5-0.1c0.5,0,1,0.1,1.5,0.1v-17
		l-46.4-46.4V313.9z M149.4,282l-22,22H88.7c-0.8,0-1.6,0.3-2.1,0.9l-38.8,38.8c1.7,1.1,3.1,2.6,4.2,4.3l38-38h35.7l-15.3,15.3v24.3
		c0.5-0.1,1-0.1,1.5-0.1c0.5,0,1,0.1,1.5,0.1v-23l17-17c0.2-0.1,0.3-0.2,0.5-0.4l22.7-22.7C152.1,285,150.7,283.5,149.4,282z"/>
	<g>
		<g>
			<path class="st2" d="M230.2,54.5c0,5.5-4.5,10-10,10c-5.5,0-10-4.5-10-10s4.5-10,10-10C225.7,44.5,230.2,49,230.2,54.5z
				 M220.2,419.5c-5.5,0-10,4.5-10,10c0,5.5,4.5,10,10,10c5.5,0,10-4.5,10-10C230.2,424,225.7,419.5,220.2,419.5z M40.1,345.4
				c-5.5,0-10,4.5-10,10c0,5.5,4.5,10,10,10s10-4.5,10-10C50.1,349.9,45.6,345.4,40.1,345.4z M178,427.5c-3.3,0-6,2.7-6,6
				c0,3.3,2.7,6,6,6s6-2.7,6-6C184,430.2,181.4,427.5,178,427.5z M430,210c-5.5,0-10,4.5-10,10c0,5.5,4.5,10,10,10
				c5.5,0,10-4.5,10-10C440,214.5,435.5,210,430,210z M10,210c-5.5,0-10,4.5-10,10c0,5.5,4.5,10,10,10s10-4.5,10-10
				C20,214.5,15.6,210,10,210z M177.8,353.4c-3.3,0-6,2.7-6,6c0,3.3,2.7,6,6,6c3.3,0,6-2.7,6-6C183.8,356.1,181.1,353.4,177.8,353.4
				z M111.8,353.4c-3.3,0-6,2.7-6,6c0,3.3,2.7,6,6,6s6-2.7,6-6C117.8,356.1,115.1,353.4,111.8,353.4z M137.5,401.6c-3.3,0-6,2.7-6,6
				s2.7,6,6,6c3.3,0,6-2.7,6-6S140.8,401.6,137.5,401.6z M156.1,313c-3.3,0-6,2.7-6,6c0,3.3,2.7,6,6,6s6-2.7,6-6
				C162.1,315.7,159.4,313,156.1,313z M6,178.1c-3.3,0-6,2.7-6,6s2.7,6,6,6s6-2.7,6-6S9.3,178.1,6,178.1z M36.1,154.5
				c-3.3,0-6,2.7-6,6s2.7,6,6,6s6-2.7,6-6S39.4,154.5,36.1,154.5z M36.1,269.7c-3.3,0-6,2.7-6,6s2.7,6,6,6s6-2.7,6-6
				S39.4,269.7,36.1,269.7z M90,163.8c-3.3,0-6,2.7-6,6s2.7,6,6,6c3.3,0,6-2.7,6-6S93.3,163.8,90,163.8z M6,244.9c-3.3,0-6,2.7-6,6
				c0,3.3,2.7,6,6,6s6-2.7,6-6C12,247.6,9.3,244.9,6,244.9z M113.9,269.7c-3.3,0-6,2.7-6,6s2.7,6,6,6s6-2.7,6-6
				S117.2,269.7,113.9,269.7z M268.1,427.5c-3.3,0-6,2.7-6,6c0,3.3,2.7,6,6,6c3.3,0,6-2.7,6-6C274.1,430.2,271.4,427.5,268.1,427.5z
				 M268.1,367.8c-3.3,0-6,2.7-6,6c0,3.3,2.7,6,6,6c3.3,0,6-2.7,6-6C274.1,370.5,271.4,367.8,268.1,367.8z M246.1,427.5
				c-3.3,0-6,2.7-6,6c0,3.3,2.7,6,6,6s6-2.7,6-6C252.1,430.2,249.5,427.5,246.1,427.5z M314.4,386c-3.3,0-6,2.7-6,6c0,3.3,2.7,6,6,6
				s6-2.7,6-6C320.4,388.7,317.7,386,314.4,386z M384.9,345.4c-5.5,0-10,4.5-10,10c0,5.5,4.5,10,10,10c5.5,0,10-4.5,10-10
				C394.9,349.9,390.4,345.4,384.9,345.4z M336.3,369.2c-3.3,0-6,2.7-6,6c0,3.3,2.7,6,6,6c3.3,0,6-2.7,6-6
				C342.3,371.9,339.6,369.2,336.3,369.2z M336.3,285.5c-3.3,0-6,2.7-6,6c0,3.3,2.7,6,6,6c3.3,0,6-2.7,6-6
				C342.3,288.2,339.6,285.5,336.3,285.5z M377.9,381c-3.3,0-6,2.7-6,6c0,3.3,2.7,6,6,6s6-2.7,6-6C383.9,383.7,381.2,381,377.9,381z
				 M434,180.3c-3.3,0-6,2.7-6,6s2.7,6,6,6c3.3,0,6-2.7,6-6S437.3,180.3,434,180.3z M403.9,152.6c-3.3,0-6,2.7-6,6c0,3.3,2.7,6,6,6
				c3.3,0,6-2.7,6-6C409.9,155.3,407.2,152.6,403.9,152.6z M360.5,170.6c-3.3,0-6,2.7-6,6c0,3.3,2.7,6,6,6s6-2.7,6-6
				C366.5,173.2,363.8,170.6,360.5,170.6z M388.9,231.6c-3.3,0-6,2.7-6,6s2.7,6,6,6c3.3,0,6-2.7,6-6S392.2,231.6,388.9,231.6z
				 M434,255c-3.3,0-6,2.7-6,6c0,3.3,2.7,6,6,6c3.3,0,6-2.7,6-6C440,257.7,437.3,255,434,255z M403.9,277.4c-3.3,0-6,2.7-6,6
				c0,3.3,2.7,6,6,6c3.3,0,6-2.7,6-6C409.9,280,407.2,277.4,403.9,277.4z"/>
		</g>
	</g>
	<g>
		<path class="st2" d="M309.4,210c-0.3-2.5-3.2-4.4-5.8-4.4c-8.2,0-15.6-4.8-18.6-12.3c-3.1-7.7-1.1-16.6,5-22.3
			c1.9-1.8,2.2-4.7,0.5-6.8c-4.2-5.4-9-10.2-14.3-14.4c-2.1-1.6-5.1-1.4-6.8,0.6c-5.4,5.9-15,8.1-22.4,5
			c-7.7-3.3-12.6-11.1-12.2-19.5c0.2-2.6-1.8-4.9-4.4-5.3c-6.7-0.8-13.5-0.8-20.2-0.1c-2.6,0.3-4.5,2.5-4.5,5.1
			c0.3,8.3-4.7,16.1-12.3,19.2c-7.4,3-16.9,0.8-22.3-5.1c-1.8-1.9-4.7-2.2-6.8-0.6c-5.4,4.2-10.3,9.1-14.6,14.4
			c-1.7,2.1-1.4,5.1,0.5,6.8c6.3,5.7,8.3,14.7,5,22.5c-3.1,7.4-10.8,12.2-19.6,12.2c-2.9-0.1-4.9,1.8-5.2,4.4
			c-0.8,6.8-0.8,13.7,0,20.5c0.3,2.5,3.3,4.4,5.9,4.4c7.8-0.2,15.4,4.7,18.5,12.3c3.1,7.7,1.1,16.6-5,22.3c-1.9,1.8-2.2,4.7-0.5,6.8
			c4.2,5.3,9,10.2,14.2,14.4c2.1,1.7,5.1,1.4,6.9-0.5c5.4-6,15-8.2,22.4-5c7.8,3.2,12.7,11.1,12.2,19.5c-0.2,2.6,1.8,5,4.4,5.3
			c3.4,0.4,6.9,0.6,10.4,0.6c3.3,0,6.6-0.2,9.9-0.5c2.6-0.3,4.5-2.5,4.5-5.2c-0.3-8.3,4.7-16.1,12.3-19.2c7.4-3,16.9-0.8,22.3,5.1
			c1.8,1.9,4.7,2.2,6.8,0.6c5.4-4.2,10.3-9.1,14.6-14.4c1.7-2.1,1.4-5.1-0.5-6.8c-6.3-5.7-8.3-14.7-5-22.5
			c3.1-7.3,10.5-12.2,18.4-12.2l1.1,0c2.6,0.2,5-1.8,5.3-4.4C310.2,223.7,310.2,216.8,309.4,210z"/>
	</g>
	<g>
		<g>
			<path class="st3" d="M188.2,212c-2.8-1.5-4.9-3.6-6.5-6.2c-1.6-2.6-2.4-5.6-2.4-9s0.8-6.3,2.4-9s3.8-4.7,6.5-6.2
				c2.8-1.5,5.9-2.2,9.3-2.2c2.9,0,5.5,0.5,7.9,1.5c2.4,1,4.3,2.5,5.9,4.4l-5,4.6c-2.3-2.6-5.1-3.9-8.4-3.9c-2.1,0-3.9,0.5-5.6,1.4
				c-1.6,0.9-2.9,2.2-3.8,3.8c-0.9,1.6-1.4,3.5-1.4,5.6s0.5,3.9,1.4,5.6s2.2,2.9,3.8,3.8c1.6,0.9,3.5,1.4,5.6,1.4
				c3.4,0,6.2-1.3,8.4-4l5,4.6c-1.6,2-3.6,3.4-6,4.5c-2.4,1-5,1.5-7.9,1.5C194.1,214.3,191,213.5,188.2,212z"/>
			<path class="st3" d="M238.9,181.6c2.2,1,3.9,2.4,5.1,4.2c1.2,1.8,1.8,4,1.8,6.5c0,2.5-0.6,4.6-1.8,6.5c-1.2,1.8-2.9,3.2-5.1,4.2
				c-2.2,1-4.8,1.5-7.8,1.5h-6.8v9.3h-7.8v-33.6h14.5C234.1,180.1,236.7,180.6,238.9,181.6z M236,196.6c1.2-1,1.8-2.4,1.8-4.3
				c0-1.9-0.6-3.3-1.8-4.3c-1.2-1-3-1.5-5.3-1.5h-6.3v11.7h6.3C233,198.1,234.8,197.6,236,196.6z"/>
			<path class="st3" d="M251.2,180.1h7.8v33.6h-7.8V180.1z"/>
			<g>
				<path class="st3" d="M202,248.5h-15.6l-3,7.2h-8l15-33.6h7.7l15,33.6h-8.2L202,248.5z M199.5,242.6l-5.3-12.9l-5.3,12.9H199.5z"
					/>
				<path class="st3" d="M238.9,223.6c2.2,1,3.9,2.4,5.1,4.2c1.2,1.8,1.8,4,1.8,6.5c0,2.5-0.6,4.6-1.8,6.5c-1.2,1.8-2.9,3.2-5.1,4.2
					c-2.2,1-4.8,1.5-7.8,1.5h-6.8v9.3h-7.8v-33.6h14.5C234.1,222.1,236.7,222.6,238.9,223.6z M236,238.6c1.2-1,1.8-2.4,1.8-4.3
					c0-1.9-0.6-3.3-1.8-4.3c-1.2-1-3-1.5-5.3-1.5h-6.3v11.7h6.3C233,240.1,234.8,239.6,236,238.6z"/>
				<path class="st3" d="M251.2,222.1h7.8v33.6h-7.8V222.1z"/>
			</g>
		</g>
	</g>
	<path class="st0" d="M220.1,126c1,0,2.1,0,3.1,0.1V68.1c-1,0.2-2,0.3-3,0.3c-1,0-2-0.1-3-0.3V126C218.2,126,219.1,126,220.1,126z"
		/>
</g>
</svg>
