<?xml version="1.0" encoding="utf-8"?>
<!-- Generator: Adobe Illustrator 21.0.0, SVG Export Plug-In . SVG Version: 6.00 Build 0)  -->
<svg version="1.1" id="Слой_1" xmlns="http://www.w3.org/2000/svg" xmlns:xlink="http://www.w3.org/1999/xlink" x="0px" y="0px"
	 viewBox="0 0 440 440" style="enable-background:new 0 0 440 440;" xml:space="preserve">
<style type="text/css">
	.st0{fill:#13AD90;}
	.st1{fill:#BEAF90;}
	.st2{fill:#202634;}
	.st3{fill:#FFFFFF;}
</style>
<g>
	<path class="st0" d="M220,309.1c-1,0-2,0-3-0.1v54c1-0.1,2-0.1,3-0.1s2,0.1,3,0.1v-54C222,309.1,221,309.1,220,309.1z"/>
	<path class="st1" d="M320.4,79.7l-60.2-24.1v-5.4l61.4,24.6c-0.8,1.3-1.3,2.8-1.3,4.4v0.5H320.4z M219.8,131.2c1.1,0,2.1,0,3.2,0.1
		V81.6c-0.8,0.3-1.6,0.4-2.5,0.5c-0.1,0-0.1,0-0.2,0c-0.1,0-0.1,0-0.2,0H220h-0.1l0,0h-0.1l0,0c-0.1,0-0.3,0-0.4,0
		c-0.8-0.1-1.6-0.2-2.3-0.5v49.7C217.9,131.2,218.9,131.2,219.8,131.2z M282.6,157l46.3-46.3l-3.8-1.9c-0.3-0.2-0.6-0.3-0.9-0.5
		l-45.3,45.3C280.2,154.7,281.4,155.9,282.6,157z M76.6,217.4v6H131c-0.1-2-0.1-4,0-6H76.6z M117.7,81.7l62-25.6v-5.4l-62.5,25.8
		c0.3,0.9,0.5,1.8,0.5,2.7V81.7z M390.6,183l-29.1-69.2l-4.5,2.3l29.1,69.3L390.6,183z M363.4,223.4v-6h-54.6c0.1,2,0.1,4,0,6H363.4
		z M281,284.8l44.6,44.6l0.9-0.5c0.2-0.1,0.4-0.3,0.6-0.4l3.1-1.6l-45.7-45.7C283.4,282.4,282.2,283.6,281,284.8z M158.8,155.5
		l-46.3-46.3l-4.7,2.4l47.5,47.5C156.4,157.9,157.6,156.7,158.8,155.5z M356.5,322.4l4.5,2.2l29.2-67.1l-4.5-2.3L356.5,322.4z
		 M153.4,279.1l-47.1,47.1l4.7,2.3l45.8-45.8C155.6,281.6,154.5,280.4,153.4,279.1z M82,116.4l-4.5-2.3L49.1,183l4.5,2.2L82,116.4z
		 M48.8,258.1l27,67.1l4.5-2.3l-27-67.1L48.8,258.1z"/>
	<g>
		<g>
			
				<ellipse transform="matrix(0.1836 -0.983 0.983 0.1836 -36.9219 395.9389)" class="st2" cx="219.9" cy="220.2" rx="84.9" ry="84.9"/>
		</g>
		<path class="st3" d="M160.6,226c0.6,0.1,1.1,0.1,1.8,0.2c2.1,0,4.2-0.8,5.9-2.1c5.2,3.4,12.2,6.5,20.6,7.5
			c1.3,0.1,2.6,0.2,3.9,0.2c3.7,0,7.2-0.6,10.5-1.4c2.8,4.5,7.4,8,13.1,9c1,0.1,2,0.3,3,0.4c-0.6,4.4-1.9,9.1-4.6,13.4
			c-3.5,5.5-8.3,9.1-12.9,11.5c-2.1-5.1-6.6-9.1-12.4-10c-1.1-0.2-2.1-0.3-3.1-0.3c-7.9,0-15,5.7-16.5,13.7
			c-1.8,9.1,4.3,17.9,13.4,19.7c1.1,0.2,2.1,0.3,3.1,0.3c7.9,0,15-5.7,16.5-13.7c0.4-1.9,0.4-3.7,0.1-5.5
			c5.4-2.6,11.1-6.7,15.3-13.3c3.3-5.1,4.8-10.7,5.4-15.8c5.9-1.1,11.1-5,13.8-10.4c2.4,1.8,4.6,4.2,6.4,7.1
			c3.1,5.2,3.1,11.3,2.3,16.2c-0.1,0-0.4,0-0.6,0l0,0v3.5c0.4,0,0.7,0,1.1,0.1c3.2,0.6,5.2,3.7,4.7,6.8c-0.5,2.8-2.9,4.7-5.7,4.7
			c-0.4,0-0.7,0-1.1-0.1c-3.2-0.6-5.2-3.7-4.7-6.8c0.5-2.8,2.9-4.7,5.7-4.7v-3.5c-4.4,0-8.4,3.2-9.2,7.6c-1,5.1,2.4,10,7.6,11
			c0.6,0.1,1.1,0.1,1.7,0.1c4.4,0,8.4-3.2,9.2-7.6c0.7-4.1-1.3-8.1-4.7-10c1-5.7,1.1-12.9-2.8-19.4c-2.3-3.8-5.2-6.8-8.3-8.9
			c0.1-0.4,0.2-0.8,0.2-1.2c0.8-4.4,0.1-8.6-1.7-12.3c3.5-1.2,7.5-2,12-2c8.5,0,15.9,2.9,21.4,6c-0.5,1.1-0.9,2.2-1.1,3.4
			c-1.3,7,3.3,13.7,10.3,15c0.8,0.1,1.6,0.2,2.3,0.2c6.1,0,11.5-4.3,12.7-10.5c1.3-7-3.3-13.7-10.3-15c-0.8-0.1-1.6-0.2-2.3-0.2
			c-3.5,0-6.7,1.3-9.1,3.7c-6-3.5-14.3-6.6-23.8-6.7c-5.4,0-10.3,1.1-14.4,2.5c-2.8-3.5-6.9-6-11.6-6.9c-1.2-0.2-2.3-0.3-3.5-0.4
			c0.6-4.4,1.9-9.1,4.7-13.4c4.8-7.6,11.7-12,17.5-14.4c1.5,3,4.4,5.4,8,6c0.7,0.1,1.3,0.2,2.1,0.2c5.2,0,10-3.7,11-9.1
			c1.1-6.1-2.9-12-9-13.1c-0.7-0.1-1.3-0.2-2.1-0.2c-5.2,0-10,3.7-11,9.1c-0.2,1.1-0.2,2.1-0.1,3.1c-6.3,2.6-14.2,7.4-19.7,16.2
			c-3.3,5.3-4.9,10.9-5.4,16.1c-5.6,1.2-10.5,4.8-13.2,9.9c-3.4-2.3-6.8-5.2-9.8-9.1c-5.2-6.6-6.8-13.7-6.9-19.7c0.1,0,0.1,0,0.3,0
			c6.8,0,12.7-4.8,14.1-11.7c1.4-7.8-3.7-15.3-11.5-16.7c-0.8-0.1-1.8-0.2-2.6-0.2c-6.8,0-12.7,4.8-14.1,11.7
			c-1.3,7.1,3,14.1,9.8,16.3c0.1,6.7,1.8,15,7.9,22.8c3.5,4.5,7.5,7.9,11.5,10.5c-0.1,0.6-0.4,1.2-0.4,1.8c-0.6,3.5-0.4,6.9,0.8,10
			c-3.7,0.9-7.9,1.4-12.1,0.9c-7.5-0.8-13.8-3.6-18.5-6.6c0.4-0.8,0.6-1.6,0.8-2.5c0.9-5.2-2.5-10.1-7.6-11.1
			c-0.6-0.1-1.1-0.1-1.8-0.2c-4.5,0-8.4,3.2-9.3,7.8C152.2,220,155.6,225,160.6,226z M184.3,178c-5.6-1.1-9.3-6.4-8.2-12
			c0.9-4.9,5.2-8.4,10.1-8.4l0,0c0.6,0,1.3,0,1.9,0.2c2.8,0.5,5,2.1,6.6,4.3s2.1,4.9,1.6,7.7c-0.9,4.9-5.2,8.4-10.1,8.4
			C185.6,178.1,185,178,184.3,178z M244.8,166.4c0.6-3.6,3.8-6.2,7.5-6.2l0,0c0.4,0,0.9,0.1,1.4,0.1c4.2,0.8,6.9,4.7,6.1,8.9
			c-0.6,3.6-3.8,6.2-7.5,6.2c-0.4,0-0.9-0.1-1.4-0.1C246.7,174.6,244,170.6,244.8,166.4z M273.7,219.6c0.8-4.2,4.4-7.2,8.6-7.2
			c0.6,0,1.1,0.1,1.6,0.2c4.8,0.8,7.9,5.5,7.1,10.3c-0.8,4.2-4.4,7.2-8.6,7.2c-0.6,0-1.1-0.1-1.6-0.2
			C276,229,272.9,224.4,273.7,219.6z M198.8,273.3c-1.1,6.1-6.4,10.4-12.5,10.4c-0.8,0-1.6-0.1-2.3-0.2c-3.3-0.6-6.2-2.5-8.2-5.4
			c-1.9-2.8-2.7-6.2-2.1-9.5c1.1-6.1,6.4-10.4,12.5-10.4c0.8,0,1.6,0.1,2.3,0.2c3.3,0.6,6.2,2.5,8.2,5.4
			C198.7,266.6,199.4,270,198.8,273.3z M156.5,215.5c0.6-2.8,3-4.8,5.9-4.9c0.4,0,0.7,0,1.1,0.1c3.3,0.6,5.4,3.7,4.8,6.9
			c-0.6,2.8-3,4.8-5.9,4.9c-0.4,0-0.7,0-1.1-0.1C158.1,221.9,156,218.8,156.5,215.5z"/>
	</g>
	<g>
		<path class="st0" d="M220,366.9c-20.1,0-36.3,16.3-36.3,36.3s16.3,36.3,36.3,36.3c20.1,0,36.3-16.3,36.3-36.3
			S240.1,366.9,220,366.9z M228.4,397.2c0,4.6-3.7,8.4-8.4,8.4c-4.6,0-8.4-3.7-8.4-8.4s3.7-8.4,8.4-8.4
			C224.6,388.9,228.4,392.6,228.4,397.2z M202.2,429c0-0.1,0-0.2,0-0.2c0-9.8,7.9-17.7,17.7-17.7s17.7,7.9,17.7,17.7
			c0,0.1,0,0.2,0,0.2c-5.1,3.5-11.2,5.5-17.8,5.5S207.3,432.5,202.2,429z M242.8,424.7c-0.8-4.6-3-8.9-6.4-12.3
			c-2.1-2.1-4.5-3.7-7.1-4.9c2.9-2.6,4.6-6.3,4.6-10.3c0-7.6-6.2-13.8-13.8-13.8s-13.8,6.2-13.8,13.8c0,3.9,1.7,7.7,4.6,10.3
			c-2.7,1.2-5.1,2.8-7.1,4.9c-3.4,3.4-5.6,7.7-6.4,12.3c-5.3-5.6-8.5-13.2-8.5-21.5c0-17.3,14.1-31.3,31.3-31.3
			c17.3,0,31.3,14.1,31.3,31.3C251.3,411.5,248.1,419,242.8,424.7z"/>
	</g>
	<g>
		<g>
			<g>
				<path class="st2" d="M69.7,197.7l-3.4-1.7l0,0l-27.9-13.8c-0.7-0.4-1.5-0.6-2.3-0.6H36c-0.2,0-0.3,0-0.5,0c-0.1,0-0.2,0-0.2,0
					c-0.1,0-0.2,0-0.4,0.1c-0.1,0-0.2,0.1-0.3,0.1s-0.2,0.1-0.3,0.1s-0.2,0.1-0.2,0.1c-0.1,0-0.2,0.1-0.3,0.1L6.4,196
					c-0.2,0.1-0.4,0.2-0.6,0.4L3,197.8c-1.8,0.9-2.9,2.7-2.9,4.7v35.7c0,2,1.1,3.8,2.9,4.7l31,15.7c0.7,0.3,1.4,0.5,2.1,0.6
					c0.1,0,0.2,0,0.3,0l0,0l0,0l0,0h0.1h0.1c0.7,0,1.5-0.2,2.1-0.6l31-15.7c1.8-0.9,2.9-2.7,2.9-4.7v-35.9
					C72.6,200.4,71.5,198.6,69.7,197.7z M36.4,214.5L8.8,200.8l27.3-13.9l0,0l21.6,10.7l6.3,3.1L36.4,214.5z M5.4,204.8
					c0.3,0.3,0.6,0.5,1,0.7l27.3,13.7v33.5L5.4,238.3V204.8z M39,252.7v-33.6l27.3-13.6c0.4-0.2,0.7-0.4,1.1-0.7v33.5L39,252.7z"/>
			</g>
		</g>
		<g>
			<g>
				<path class="st2" d="M437,197.7l-3.4-1.7l0,0l-27.9-13.8c-0.7-0.4-1.5-0.6-2.3-0.6h-0.1c-0.2,0-0.3,0-0.5,0c-0.1,0-0.2,0-0.2,0
					c-0.1,0-0.2,0-0.4,0.1c-0.1,0-0.2,0.1-0.3,0.1c-0.1,0-0.2,0.1-0.3,0.1c-0.1,0-0.2,0.1-0.2,0.1c-0.1,0-0.2,0.1-0.3,0.1L373.6,196
					c-0.2,0.1-0.4,0.2-0.6,0.4l-2.7,1.4c-1.8,0.9-2.9,2.7-2.9,4.7v35.7c0,2,1.1,3.8,2.9,4.7l31,15.7c0.7,0.3,1.4,0.5,2.1,0.6
					c0.1,0,0.2,0,0.3,0l0,0l0,0l0,0h0.1h0.1c0.7,0,1.5-0.2,2.1-0.6l31-15.7c1.8-0.9,2.9-2.7,2.9-4.7v-35.9
					C439.9,200.4,438.8,198.6,437,197.7z M403.6,214.5l-27.5-13.8l27.3-13.9l0,0l21.6,10.7l6.3,3.1L403.6,214.5z M372.6,204.8
					c0.3,0.3,0.6,0.5,1,0.7l27.3,13.7v33.5l-28.3-14.4V204.8z M406.3,252.7v-33.6l27.3-13.6c0.4-0.2,0.7-0.4,1.1-0.7v33.5
					L406.3,252.7z"/>
			</g>
		</g>
		<g>
			<g>
				<path class="st2" d="M253.3,16.6l-3.4-1.7l0,0L222.1,1c-0.7-0.4-1.5-0.6-2.3-0.6h-0.1c-0.2,0-0.3,0-0.5,0c-0.1,0-0.2,0-0.2,0
					c-0.1,0-0.2,0-0.4,0.1c-0.1,0-0.2,0.1-0.3,0.1s-0.2,0.1-0.3,0.1s-0.2,0.1-0.2,0.1c-0.1,0-0.2,0.1-0.3,0.1l-27.5,14
					c-0.2,0.1-0.4,0.2-0.6,0.4l-2.7,1.4c-1.8,0.9-2.9,2.7-2.9,4.7v35.7c0,2,1.1,3.8,2.9,4.7l31,15.7c0.7,0.3,1.4,0.5,2.1,0.6
					c0.1,0,0.2,0,0.3,0l0,0l0,0l0,0h0.1h0.1c0.7,0,1.5-0.2,2.1-0.6l31-15.7c1.8-0.9,2.9-2.7,2.9-4.7V21.3
					C256.3,19.3,255.1,17.5,253.3,16.6z M220,33.4l-27.5-13.8l27.3-13.9l0,0l21.6,10.7l6.3,3.1L220,33.4z M189,23.7
					c0.3,0.3,0.6,0.5,1,0.7L217.4,38v33.5L189,57.1V23.7z M222.6,71.5V37.9l27.3-13.6c0.4-0.2,0.7-0.4,1.1-0.7v33.5L222.6,71.5z"/>
			</g>
		</g>
		<g>
			<g>
				<path class="st2" d="M111.2,75.2l-19.3-9.6c-0.6-0.3-1.3-0.5-2-0.5h-0.1c-0.1,0-0.3,0-0.4,0s-0.1,0-0.2,0s-0.2,0-0.3,0.1
					c-0.1,0-0.1,0-0.2,0.1c-0.1,0-0.2,0.1-0.3,0.1c-0.1,0-0.1,0.1-0.2,0.1s-0.2,0.1-0.3,0.1l0,0l0,0l0,0L71,74.2
					c-0.2,0.1-0.3,0.2-0.5,0.3l-1.6,0.8c-1.5,0.8-2.4,2.3-2.4,3.9v22.1c0,1.7,0.9,3.2,2.4,3.9l19.2,9.7c0.6,0.3,1.3,0.5,2,0.5
					s1.4-0.2,2-0.5l19.2-9.7c1.5-0.8,2.4-2.3,2.4-3.9V79.2C113.7,77.5,112.8,76,111.2,75.2z M90.1,86.7l-17-8.5L90,69.6l0,0
					l17.2,8.6L90.1,86.7z M70.9,82C70.9,82,71,82,70.9,82l16.9,8.5v19.4l-16.9-8.6V82z M92.3,110V90.6l16.8-8.4c0,0,0.1,0,0.1-0.1
					v19.3L92.3,110z"/>
			</g>
		</g>
		<g>
			<g>
				<path class="st2" d="M369.2,75.2l-19.3-9.6c-0.6-0.3-1.3-0.5-2-0.5h-0.1c-0.1,0-0.3,0-0.4,0s-0.1,0-0.2,0s-0.2,0-0.3,0.1
					c-0.1,0-0.1,0-0.2,0.1c-0.1,0-0.2,0.1-0.3,0.1c-0.1,0-0.1,0.1-0.2,0.1s-0.2,0.1-0.3,0.1l0,0l0,0l0,0L329,74.2
					c-0.2,0.1-0.3,0.2-0.5,0.3l-1.6,0.8c-1.5,0.8-2.4,2.3-2.4,3.9v22.1c0,1.7,0.9,3.2,2.4,3.9L346,115c0.6,0.3,1.3,0.5,2,0.5
					s1.4-0.2,2-0.5l19.2-9.7c1.5-0.8,2.4-2.3,2.4-3.9V79.2C371.6,77.5,370.7,76,369.2,75.2z M348,86.7l-17-8.5l16.9-8.6l0,0
					l17.2,8.6L348,86.7z M328.9,82c0,0,0.1,0,0.1,0.1l16.8,8.4v19.4l-16.9-8.6V82z M350.2,110V90.6l16.8-8.4c0,0,0.1,0,0.1-0.1v19.3
					L350.2,110z"/>
			</g>
		</g>
		<g>
			<g>
				<path class="st2" d="M111.2,333.2l-19.3-9.6c-0.6-0.3-1.3-0.5-2-0.5h-0.1c-0.1,0-0.3,0-0.4,0s-0.1,0-0.2,0s-0.2,0-0.3,0.1
					c-0.1,0-0.1,0-0.2,0.1c-0.1,0-0.2,0.1-0.3,0.1c-0.1,0-0.1,0.1-0.2,0.1s-0.2,0.1-0.3,0.1l0,0l0,0l0,0L71,332.1
					c-0.2,0.1-0.3,0.2-0.5,0.3l-1.6,0.8c-1.5,0.8-2.4,2.3-2.4,3.9v22.1c0,1.7,0.9,3.2,2.4,3.9l19.2,9.7c0.6,0.3,1.3,0.5,2,0.5
					s1.4-0.2,2-0.5l19.2-9.7c1.5-0.8,2.4-2.3,2.4-3.9V337C113.7,335.4,112.8,333.9,111.2,333.2z M90.1,344.6l-17-8.5l16.9-8.6l0,0
					l17.2,8.6L90.1,344.6z M70.9,340c0,0,0.1,0,0.1,0.1l16.8,8.4v19.4l-16.9-8.6V340z M92.3,367.9v-19.4l16.8-8.4c0,0,0.1,0,0.1-0.1
					v19.3L92.3,367.9z"/>
			</g>
		</g>
		<g>
			<g>
				<path class="st2" d="M369.2,333.2l-19.3-9.6c-0.6-0.3-1.3-0.5-2-0.5h-0.1c-0.1,0-0.3,0-0.4,0s-0.1,0-0.2,0s-0.2,0-0.3,0.1
					c-0.1,0-0.1,0-0.2,0.1c-0.1,0-0.2,0.1-0.3,0.1c-0.1,0-0.1,0.1-0.2,0.1s-0.2,0.1-0.3,0.1l0,0l0,0l0,0l-16.9,8.6
					c-0.2,0.1-0.3,0.2-0.5,0.3l-1.6,0.8c-1.5,0.8-2.4,2.3-2.4,3.9v22.1c0,1.7,0.9,3.2,2.4,3.9L346,373c0.6,0.3,1.3,0.5,2,0.5
					s1.4-0.2,2-0.5l19.2-9.7c1.5-0.8,2.4-2.3,2.4-3.9v-22.2C371.6,335.4,370.7,333.9,369.2,333.2z M348,344.6l-17-8.5l16.9-8.6l0,0
					l17.2,8.6L348,344.6z M328.9,340c0,0,0.1,0,0.1,0.1l16.8,8.4v19.4l-16.9-8.6V340z M350.2,367.9v-19.4l16.8-8.4
					c0,0,0.1,0,0.1-0.1v19.3L350.2,367.9z"/>
			</g>
		</g>
	</g>
</g>
</svg>
