<?xml version="1.0" encoding="utf-8"?>
<!-- Generator: Adobe Illustrator 21.0.0, SVG Export Plug-In . SVG Version: 6.00 Build 0)  -->
<svg version="1.1" id="Слой_1" xmlns="http://www.w3.org/2000/svg" xmlns:xlink="http://www.w3.org/1999/xlink" x="0px" y="0px"
	 viewBox="0 0 440 440" style="enable-background:new 0 0 440 440;" xml:space="preserve">
<style type="text/css">
	.st0{fill:#DBD3C2;}
	.st1{fill:#EDE9E0;}
	.st2{fill:#F09D51;}
	.st3{fill:#202634;}
	.st4{fill:#FFFFFF;}
	.st5{fill:#BEAF90;}
</style>
<g>
	<g>
		<path class="st0" d="M227,117c3.8,1.1,7.3,3,10.3,5.8l0.1,0.1l0.1,0.1l0.1,0.1l0.1,0.1l0.1,0.1c11.3,11,24,16.3,41.4,17.3
			c17.2,1,30.9,15.2,31.2,32.4c0,1.9,0.1,3.6,0.1,5.2l0,0l0,0l0,0.1l0,0.1l0,0.1c0.2,10.5,0.4,22.2-0.4,34.4h8
			c0.8-12.3,0.6-24,0.4-34.6l0-0.2l0-0.1l0-0.1l0-0.1l0-0.1l0,0l0,0l0,0l0,0c-0.1-1.5-0.1-3.1-0.1-4.9
			c-0.3-21.4-17.3-39.1-38.7-40.3c-15.5-0.9-26.3-5.4-36.3-15l-0.1-0.1l0,0l0,0l-0.1-0.1l-0.1-0.1l-0.1-0.1l-0.1-0.1l-0.1-0.1
			l-0.1-0.1c-4.5-4.1-9.9-6.9-15.7-8.1V117z"/>
		<path class="st0" d="M129.9,213c-0.8-12.1-0.6-23.8-0.4-34.2l0,0l0,0l0-0.3l0-0.1l0-0.1c0.1-1.6,0.1-3.3,0.1-5.2
			c0.3-17.2,14-31.5,31.2-32.5c17.4-1,30.1-6.3,41.4-17.3l0.1-0.1l0.1-0.1l0.1-0.1l0.1-0.1l0.1-0.1c3-2.7,6.5-4.7,10.3-5.8v-8.2
			c-5.8,1.2-11.2,4-15.7,8.1l-0.1,0.1l-0.1,0l-0.1,0.1l-0.1,0.1l-0.1,0.1l-0.1,0.1l0,0l0,0l-0.1,0.1c-9.9,9.7-20.8,14.2-36.3,15
			c-21.4,1.2-38.4,18.9-38.7,40.3c0,1.8-0.1,3.4-0.1,4.9l0,0.1l0,0.1l0,0.1l0,0.1l0,0.3l0,0l0,0.1l0,0l0,0.1
			c-0.2,10.5-0.4,22.2,0.4,34.4H129.9z"/>
		<path class="st0" d="M213,323.1c-0.6-0.2-1.3-0.4-1.9-0.6c-19.3-6.7-35.3-16.3-47.7-28.4c-11.1-10.8-19.5-24-25.1-39
			c-3.4-9.3-5.6-18.7-6.9-28.1h-8.1c1.4,10.2,3.7,20.6,7.5,30.8c6,16.2,15.1,30.3,27,42c13.3,12.9,30.3,23.1,50.7,30.2
			c1.5,0.5,3,0.9,4.5,1.2V323.1z"/>
		<path class="st0" d="M308.6,227c-1.3,9.3-3.5,18.8-6.9,28c-5.6,15.1-14,28.2-25.1,39.1c-12.4,12.1-28.4,21.7-47.7,28.4
			c-0.6,0.2-1.3,0.4-1.9,0.6v8.2c1.5-0.3,3.1-0.7,4.5-1.2c20.4-7.1,37.4-17.3,50.6-30.2c12-11.7,21-25.8,27-42
			c3.8-10.3,6.1-20.6,7.5-30.8H308.6z"/>
	</g>
	<g>
		<path class="st1" d="M227,92.5c9.8,1.4,19.1,5.7,26.5,12.6l0.3,0.3l0.3,0.3l0.1,0.1l0.2,0.1l0.1,0.1c5.9,5.8,12.6,9.8,26,10.5
			c29.7,1.7,53.4,26.3,53.8,56c0,1.7,0.1,3.1,0.1,4.5l0,0.1l0,0.1l0,0.1l0,0.4l0,0.4c0.2,10.2,0.4,22.1-0.4,34.9h5
			c0.8-12.8,0.6-24.7,0.4-35l0-0.4l0-0.1l0-0.1l0-0.4l0-0.1l0-0.1l0-0.1c-0.1-1.3-0.1-2.7-0.1-4.3c-0.5-32.4-26.2-59.1-58.6-61
			c-11.9-0.7-17.5-4-22.8-9.1l-0.1-0.1l0,0l0,0l-0.2-0.1l-0.1-0.1l-0.3-0.3l0,0l0,0l-0.3-0.3c-8.4-7.7-18.8-12.5-29.9-13.9V92.5z"/>
		<path class="st1" d="M332.8,227c-1.5,11.9-4.1,24.2-8.6,36.3c-6.8,18.4-17.2,34.6-30.8,47.9c-14.9,14.6-33.9,26-56.5,33.9
			c-2.2,0.8-4.5,1.4-6.8,1.9c-1,0.2-2,0.4-3,0.5v5c1.3-0.2,2.6-0.4,4-0.6c2.6-0.5,5.1-1.2,7.5-2.1c23.3-8.1,42.9-19.9,58.4-35
			c14.2-13.9,25-30.6,32-49.8c4.7-12.8,7.4-25.7,8.9-38.1H332.8z"/>
		<path class="st1" d="M105.9,213c-0.8-12.7-0.6-24.5-0.4-34.7l0-0.1l0-0.1l0-0.3l0-0.4l0-0.4c0.1-1.4,0.1-2.8,0.1-4.4
			c0.4-29.8,24.1-54.4,53.8-56.1c13.4-0.7,20.1-4.7,26-10.5l0.2-0.2l0.2-0.2l0.1-0.1l0.3-0.2l0.3-0.2c7.4-6.8,16.7-11.2,26.5-12.6
			v-5c-11.1,1.4-21.5,6.2-29.9,13.9l-0.3,0.2l0,0l0,0l-0.3,0.2l-0.1,0.1l-0.2,0.2l0,0l0,0l-0.2,0.2c-5.3,5.1-10.9,8.4-22.8,9.1
			c-32.4,1.8-58.1,28.6-58.6,61c0,1.6-0.1,3-0.1,4.3l0,0.4l0,0l0,0l0,0.4l0,0.3l0,0.1l0,0.2c-0.2,10.2-0.4,22.1,0.3,34.8H105.9z"/>
		<path class="st1" d="M213,347.5c-1-0.1-2-0.3-3-0.5c-2.3-0.5-4.6-1.1-6.8-1.9c-22.6-7.9-41.6-19.3-56.6-33.9
			c-13.7-13.3-24.1-29.5-30.9-47.9c-4.5-12.2-7.1-24.5-8.6-36.4h-5c1.5,12.4,4.2,25.3,8.9,38.1c7.1,19.2,17.8,35.9,32.1,49.8
			c15.5,15.1,35.1,26.9,58.4,35c2.4,0.8,4.9,1.5,7.4,2c1.3,0.3,2.7,0.5,4,0.6V347.5z"/>
	</g>
	<g>
		<g>
			<path class="st2" d="M221.5,405.8c0.5-1.1,0.1-2.4-1-2.9c-1.1-0.5-2.4-0.1-2.9,1c-6.4,13.4-18.9,22.6-19,22.7
				c-1,0.7-1.2,2.1-0.5,3.1c0.4,0.6,1.1,0.9,1.8,0.9c0.4,0,0.9-0.1,1.3-0.4C201.6,429.7,214.6,420.2,221.5,405.8z M234.7,373
				c-4.7-2.3-10-3.5-15.3-3.5c-13.5,0-26,7.9-31.9,20.1c-0.5,1.1-0.1,2.4,1,2.9c1.1,0.5,2.4,0.1,2.9-1c5.1-10.7,16.1-17.6,27.9-17.6
				c4.6,0,9.2,1,13.4,3c7.5,3.6,13.1,9.8,15.8,17.6c2.7,7.8,2.3,16.2-1.3,23.7c-0.5,1.1-0.1,2.4,1,2.9c0.3,0.1,0.6,0.2,0.9,0.2
				c0.8,0,1.6-0.5,2-1.2c4.1-8.5,4.6-18.1,1.5-27C249.7,384.2,243.3,377.1,234.7,373z M229.3,437.2c0.4,0.4,0.9,0.5,1.4,0.5
				c0.6,0,1.2-0.3,1.6-0.8c5.5-6.3,9.9-12.9,13.1-19.7c3.3-6.9,3.7-14.8,1.2-22c-2.6-7.3-7.8-13.1-14.7-16.4
				c-3.9-1.8-8.2-2.8-12.4-2.8c-11,0-21.2,6.4-26,16.4c-1.9,3.9-5.2,7.6-7.7,9.9c-0.9,0.8-0.9,2.2-0.1,3.1c0.8,0.9,2.2,0.9,3.1,0.1
				c2.7-2.6,6.4-6.7,8.6-11.2c4-8.4,12.7-13.9,22.1-13.9c3.6,0,7.3,0.8,10.6,2.4c5.9,2.8,10.3,7.8,12.5,13.9
				c2.2,6.2,1.8,12.8-1,18.7c-3.1,6.4-7.3,12.7-12.5,18.7C228.3,435,228.4,436.4,229.3,437.2z M220.1,439.5c0.5,0,1.1-0.2,1.5-0.6
				c5.4-5.2,12.9-13.7,18-24.4c2.6-5.4,2.9-11.4,0.9-17.1s-6-10.1-11.4-12.7c-3-1.4-6.3-2.2-9.6-2.2c-8.5,0-16.4,5-20.1,12.7
				c-3.6,7.5-11.1,13.8-12.6,15c-0.9,0.8-1.1,2.1-0.3,3.1c0.8,0.9,2.1,1.1,3.1,0.3c2.2-1.8,9.9-8.3,13.8-16.5
				c3-6.2,9.3-10.2,16.2-10.2c2.7,0,5.3,0.6,7.8,1.8c4.3,2.1,7.6,5.7,9.2,10.2c1.6,4.5,1.3,9.4-0.7,13.7
				c-4.9,10.1-12,18.2-17.1,23.2c-0.9,0.8-0.9,2.2,0,3.1C219,439.3,219.5,439.5,220.1,439.5z M211.7,438.5c0.5,0,1-0.2,1.4-0.5
				c5.2-4.4,14.7-13.7,20.7-26.2c1.8-3.8,2.1-8.1,0.7-12.1c-1.4-4-4.3-7.2-8.1-9c-2.1-1-4.5-1.6-6.8-1.6c-6.1,0-11.7,3.5-14.3,9
				c-4.7,9.9-14.7,17.5-14.8,17.5c-0.6,0.4-1.1,0.9-1.6,1.3c-0.9,0.8-0.9,2.2-0.1,3.1c0.8,0.9,2.2,0.9,3.1,0.1
				c0.3-0.3,0.7-0.6,1.2-1c0.4-0.3,10.9-8.3,16.1-19.2c1.9-4,6-6.5,10.3-6.5c1.7,0,3.4,0.4,4.9,1.1c2.8,1.3,4.8,3.6,5.9,6.5
				c1,2.9,0.8,6-0.5,8.8c-5.6,11.8-14.7,20.6-19.6,24.8c-0.9,0.8-1,2.2-0.2,3.1C210.4,438.2,211,438.5,211.7,438.5z M204.7,435.7
				c0.5,0,0.9-0.1,1.3-0.5c3.4-2.7,15.2-12.4,21.9-26.4c1.1-2.2,1.2-4.8,0.4-7.1c-0.8-2.4-2.5-4.2-4.8-5.3c-1.2-0.6-2.6-0.9-4-0.9
				c-3.6,0-6.9,2.1-8.4,5.3c-5.4,11.2-16.1,19.4-16.8,20c-0.9,0.6-1.6,1.4-2.2,2.3c-0.7,1-0.4,2.4,0.6,3c1,0.7,2.4,0.4,3-0.6
				c0.3-0.5,0.7-0.9,1.2-1.2c0,0,0,0,0,0c0.5-0.4,12.2-9.3,18.1-21.6c0.8-1.7,2.6-2.8,4.5-2.8c0.7,0,1.5,0.2,2.1,0.5
				c1.2,0.6,2.1,1.6,2.5,2.8c0.4,1.2,0.4,2.6-0.2,3.8c-6.3,13.1-17.4,22.3-20.6,24.8c-1,0.7-1.1,2.1-0.4,3.1
				C203.4,435.4,204.1,435.7,204.7,435.7z"/>
		</g>
	</g>
	<g>
		<path class="st2" d="M220,314c-1,0-2-0.1-3-0.3v51.9c0.8-0.1,1.7-0.1,2.5-0.1c1.2,0,2.3,0.1,3.5,0.2v-52
			C222,313.9,221,314,220,314z"/>
	</g>
	<g>
		<g id="surface1_2_">
			<g>
				<path class="st3" d="M296.5,178.8l0-0.1c-0.1-1.7-0.1-3.6-0.2-5.6c-0.1-9.9-8-18.1-18-18.7c-20.7-1.2-36.7-7.9-50.4-21.2
					l-0.1-0.1c-4.5-4.1-11.2-4.1-15.7,0l-0.1,0.1c-13.7,13.3-29.7,20.1-50.4,21.2c-9.9,0.6-17.8,8.8-18,18.7c0,2-0.1,3.9-0.2,5.6
					l0,0.3c-0.4,21.1-0.9,47.4,7.9,71.2c4.8,13.1,12.1,24.5,21.7,33.9c10.9,10.7,25.2,19.1,42.6,25.2c0.6,0.2,1.1,0.4,1.7,0.5
					c0.8,0.2,1.7,0.3,2.5,0.3s1.7-0.1,2.5-0.3c0.6-0.1,1.2-0.3,1.8-0.5c17.3-6,31.6-14.5,42.5-25.2c9.6-9.4,16.9-20.8,21.7-33.9
					C297.4,226.3,296.9,200,296.5,178.8z"/>
			</g>
		</g>
		<g>
			<path class="st4" d="M202.8,257.2h34.4c7,0,12.7-5.7,12.7-12.7v-22.7c0-7-5.7-12.7-12.7-12.7h-0.6V199c0-9-7.4-16.2-16.5-16.2
				c-9.1,0-16.5,7.3-16.5,16.2v10.1h-0.6c-7,0-12.7,5.7-12.7,12.7v22.7C190.1,251.5,195.8,257.2,202.8,257.2z M211.9,199
				c0-4.3,3.6-7.7,8.1-7.7c4.4,0,8.1,3.5,8.1,7.7v10.1h-16.1V199z M198.6,221.8c0-2.3,1.9-4.2,4.2-4.2h34.4c2.3,0,4.2,1.9,4.2,4.2
				v22.7c0,2.3-1.9,4.2-4.2,4.2h-34.4c-2.3,0-4.2-1.9-4.2-4.2V221.8z"/>
			<circle class="st4" cx="220" cy="233" r="4.2"/>
		</g>
	</g>
	<g>
		<g>
			<path class="st5" d="M73.9,217c0.1,1.1,0.2,2.3,0.2,3.4c0,0.9,0,1.7-0.1,2.6h67c-0.3-2-0.5-4-0.6-6H73.9z"/>
		</g>
		<g>
			<path class="st5" d="M220,74.5c-1,0-2-0.1-3-0.1v51.9c1-0.2,2-0.3,3-0.3c1,0,2,0.1,3,0.3V74.3C222,74.4,221,74.5,220,74.5z"/>
		</g>
		<g>
			<path class="st5" d="M366,220.4c0-1.2,0.1-2.3,0.2-3.4h-66.5c-0.2,2-0.4,4-0.6,6h67C366,222.2,366,221.3,366,220.4z"/>
		</g>
	</g>
	<g>
		<g>
			<g>
				<circle class="st3" cx="35" cy="220.4" r="35"/>
			</g>
			<path class="st4" d="M53.6,215.4v-3c0-2.9-1.9-5.4-4.6-6.2l0-2.4c0-2.7-2.2-4.9-4.9-4.9h-0.2l-21.6,6.7c-0.5,0-1,0.1-1.4,0.3
				c-3.6,0-6.5,2.9-6.5,6.5v20.8c0,3.6,2.9,6.5,6.5,6.5h26.3c3.6,0,6.5-2.9,6.5-6.5v-3.5c1.3-0.6,2.1-1.9,2.1-3.3v-7.7
				C55.7,217.3,54.8,216,53.6,215.4z M33.8,205.9l10.5-3.3c0.5,0.1,0.9,0.6,0.9,1.1l0,2.1H33.8z M52,218.8v7.5h-8.4v-7.5H52z
				 M49.9,215.1h-6.4c-2,0-3.6,1.6-3.6,3.6v7.7c0,2,1.6,3.6,3.6,3.6h6.4v3.2c0,1.5-1.2,2.7-2.7,2.7H20.8c-1.5,0-2.7-1.2-2.7-2.7
				v-20.8c0-1.5,1.2-2.7,2.7-2.7h26.3c1.5,0,2.7,1.2,2.7,2.7V215.1z"/>
		</g>
		<g>
			<g>
				<circle class="st3" cx="405" cy="220.4" r="35"/>
			</g>
			<path class="st4" d="M423.5,215.4v-3c0-2.9-1.9-5.4-4.6-6.2l0-2.4c0-2.7-2.2-4.9-4.9-4.9h-0.2l-21.6,6.7c-0.5,0-1,0.1-1.4,0.3
				c-3.6,0-6.5,2.9-6.5,6.5v20.8c0,3.6,2.9,6.5,6.5,6.5H417c3.6,0,6.5-2.9,6.5-6.5v-3.5c1.3-0.6,2.1-1.9,2.1-3.3v-7.7
				C425.6,217.3,424.8,216,423.5,215.4z M415.1,203.8l0,2.1h-11.5l10.5-3.3C414.7,202.8,415.1,203.2,415.1,203.8z M421.9,218.8v7.5
				h-8.4v-7.5H421.9z M419.8,215.1h-6.4c-2,0-3.6,1.6-3.6,3.6v7.7c0,2,1.6,3.6,3.6,3.6h6.4v3.2c0,1.5-1.2,2.7-2.7,2.7h-26.3
				c-1.5,0-2.7-1.2-2.7-2.7v-20.8c0-1.5,1.2-2.7,2.7-2.7H417c1.5,0,2.7,1.2,2.7,2.7V215.1z"/>
		</g>
		<g>
			<g>
				<circle class="st3" cx="220" cy="35.5" r="35"/>
			</g>
			<path class="st4" d="M238.5,30.4v-3c0-2.9-1.9-5.4-4.6-6.2l0-2.4c0-2.7-2.2-4.9-4.9-4.9h-0.2l-21.6,6.7c-0.5,0-1,0.1-1.4,0.3
				c-3.6,0-6.5,2.9-6.5,6.5v20.8c0,3.6,2.9,6.5,6.5,6.5h26.3c3.6,0,6.5-2.9,6.5-6.5v-3.5c1.3-0.6,2.1-1.9,2.1-3.3v-7.7
				C240.7,32.3,239.8,31,238.5,30.4z M218.7,21l10.5-3.3c0.5,0.1,0.9,0.6,0.9,1.1l0,2.1H218.7z M237,33.8v7.5h-8.4v-7.5H237z
				 M234.8,30.1h-6.4c-2,0-3.6,1.6-3.6,3.6v7.7c0,2,1.6,3.6,3.6,3.6h6.4v3.2c0,1.5-1.2,2.7-2.7,2.7h-26.3c-1.5,0-2.7-1.2-2.7-2.7
				V27.4c0-1.5,1.2-2.7,2.7-2.7h26.3c1.5,0,2.7,1.2,2.7,2.7V30.1z"/>
		</g>
	</g>
</g>
</svg>
