<?xml version="1.0" encoding="utf-8"?>
<!-- Generator: Adobe Illustrator 21.0.0, SVG Export Plug-In . SVG Version: 6.00 Build 0)  -->
<svg version="1.1" id="Слой_1" xmlns="http://www.w3.org/2000/svg" xmlns:xlink="http://www.w3.org/1999/xlink" x="0px" y="0px"
	 viewBox="0 0 509 140" style="enable-background:new 0 0 509 140;" xml:space="preserve">
<style type="text/css">
	.st0{fill:#202634;}
	.st1{display:none;fill:#202634;}
	.st2{fill:#FFFFFF;}
</style>
<g id="logo1_1_">
	<g>
		<g>
			<g>
				<g>
					<path class="st0" d="M190.9,49.3c-0.8,4.9-2.8,8.6-5.9,11.2c-3.1,2.5-7,3.8-11.5,3.8c-5.1,0-9.4-1.7-12.8-5.2
						c-0.9-0.9-1.7-2-2.4-3.2c-0.6-1.2-1.1-2.3-1.4-3.2c-0.3-0.9-0.5-2.2-0.7-3.9c-0.2-1.7-0.2-2.9-0.2-3.7c0-0.7,0-2.1,0-4.2
						c0-2.1,0-3.5,0-4.2c0-0.7,0.1-1.9,0.2-3.7c0.2-1.7,0.4-3,0.7-3.9c0.3-0.9,0.8-2,1.4-3.2c0.6-1.2,1.4-2.3,2.4-3.2
						c3.4-3.4,7.7-5.2,12.8-5.2c4.5,0,8.4,1.3,11.5,3.8c3.1,2.5,5.1,6.3,5.9,11.2h-11.5c-0.9-3.3-2.9-4.9-5.9-4.9
						c-2,0-3.5,0.6-4.5,1.9c-0.6,0.8-1,1.9-1.3,3.4c-0.3,1.5-0.4,4.1-0.4,8c0,3.8,0.1,6.5,0.4,8c0.3,1.5,0.7,2.6,1.3,3.4
						c1,1.3,2.5,1.9,4.5,1.9c3,0,5-1.6,5.9-4.9H190.9z"/>
					<path class="st0" d="M230.3,63.9h-13.1L209,46.8h-3.8v17.1h-11.3v-46h18.2c4.9,0,8.7,1.5,11.5,4.4c2.8,2.9,4.2,6.4,4.2,10.4
						c0,2.9-0.7,5.4-2.2,7.4c-1.5,2-3.2,3.6-5.3,4.6L230.3,63.9z M215.1,36c0.9-0.9,1.4-2,1.4-3.3c0-1.2-0.5-2.3-1.4-3.3
						c-0.9-0.9-2.1-1.4-3.6-1.4h-6.4v9.3h6.4C213.1,37.3,214.2,36.9,215.1,36z"/>
					<path class="st0" d="M266.1,17.9l-13.9,27.3v18.8h-11.3V45.2L227,17.9h12.3l7.2,16.6l7.2-16.6H266.1z"/>
					<path class="st0" d="M298.2,22.3c2.8,2.9,4.2,6.4,4.2,10.4c0,4.1-1.4,7.5-4.2,10.4c-2.8,2.9-6.6,4.4-11.5,4.4h-6.9v16.4h-11.3
						v-46h18.2C291.5,17.9,295.4,19.3,298.2,22.3z M289.7,36c0.9-0.9,1.4-2,1.4-3.3c0-1.2-0.5-2.3-1.4-3.3c-0.9-0.9-2.1-1.4-3.6-1.4
						h-6.4v9.3h6.4C287.6,37.3,288.8,36.9,289.7,36z"/>
					<path class="st0" d="M338.1,28h-11.3v35.9h-11.3V28h-11.3V17.9h33.9V28z"/>
					<path class="st0" d="M375.2,36.7c0,0.7,0,2.1,0,4.2c0,2.1,0,3.5,0,4.2c0,0.7-0.1,1.9-0.2,3.7c-0.2,1.7-0.4,3-0.7,3.9
						c-0.3,0.9-0.8,2-1.4,3.2c-0.6,1.2-1.4,2.3-2.4,3.2c-3.4,3.4-7.7,5.2-12.9,5.2c-5.1,0-9.4-1.7-12.9-5.2c-0.9-0.9-1.7-2-2.4-3.2
						c-0.6-1.2-1.1-2.3-1.4-3.2c-0.3-0.9-0.5-2.2-0.7-3.9c-0.2-1.7-0.2-2.9-0.2-3.7c0-0.7,0-2.1,0-4.2c0-2.1,0-3.5,0-4.2
						c0-0.7,0.1-1.9,0.2-3.7c0.2-1.7,0.4-3,0.7-3.9c0.3-0.9,0.8-2,1.4-3.2c0.6-1.2,1.4-2.3,2.4-3.2c3.4-3.4,7.7-5.2,12.9-5.2
						c5.1,0,9.4,1.7,12.9,5.2c0.9,0.9,1.7,2,2.4,3.2c0.6,1.2,1.1,2.3,1.4,3.2c0.3,0.9,0.5,2.2,0.7,3.9
						C375.1,34.7,375.2,36,375.2,36.7z M363.5,48.9c0.3-1.4,0.4-4.1,0.4-8s-0.1-6.5-0.4-8c-0.3-1.4-0.7-2.6-1.3-3.3
						c-1-1.3-2.5-2-4.5-2c-2,0-3.5,0.7-4.5,2c-0.6,0.8-1,1.9-1.3,3.3c-0.3,1.4-0.4,4.1-0.4,8s0.1,6.5,0.4,8c0.3,1.4,0.7,2.5,1.3,3.3
						c1,1.4,2.5,2.1,4.5,2.1c2,0,3.5-0.7,4.5-2.1C362.8,51.4,363.2,50.3,363.5,48.9z"/>
				</g>
			</g>
			<g>
				<path class="st0" d="M187.2,80.4c2.8,2.9,4.2,6.4,4.2,10.4c0,4.1-1.4,7.5-4.2,10.4c-2.8,2.9-6.6,4.4-11.5,4.4h-6.9v16.4h-11.3
					v-46h18.2C180.6,76.1,184.4,77.5,187.2,80.4z M178.8,94.1c0.9-0.9,1.4-2,1.4-3.3c0-1.2-0.5-2.3-1.4-3.3
					c-0.9-0.9-2.1-1.4-3.6-1.4h-6.4v9.3h6.4C176.7,95.5,177.9,95.1,178.8,94.1z"/>
				<path class="st0" d="M231,122.1h-13.1l-8.1-17.1H206v17.1h-11.3v-46h18.2c4.9,0,8.7,1.5,11.5,4.4c2.8,2.9,4.2,6.4,4.2,10.4
					c0,2.9-0.7,5.4-2.2,7.4c-1.5,2-3.2,3.6-5.3,4.6L231,122.1z M215.9,94.1c0.9-0.9,1.4-2,1.4-3.3c0-1.2-0.5-2.3-1.4-3.3
					c-0.9-0.9-2.1-1.4-3.6-1.4H206v9.3h6.4C213.8,95.5,215,95.1,215.9,94.1z"/>
				<path class="st0" d="M245.2,122.1h-11.3v-46h11.3V122.1z"/>
				<path class="st0" d="M284.7,107.5c-0.8,4.9-2.8,8.6-5.9,11.2c-3.1,2.5-7,3.8-11.5,3.8c-5.1,0-9.4-1.7-12.8-5.2
					c-0.9-0.9-1.7-2-2.4-3.2c-0.6-1.2-1.1-2.3-1.4-3.2c-0.3-0.9-0.5-2.2-0.7-3.9c-0.2-1.7-0.2-2.9-0.2-3.7c0-0.7,0-2.1,0-4.2
					c0-2.1,0-3.5,0-4.2s0.1-1.9,0.2-3.7c0.2-1.7,0.4-3,0.7-3.9c0.3-0.9,0.8-2,1.4-3.2c0.6-1.2,1.4-2.3,2.4-3.2
					c3.4-3.4,7.7-5.2,12.8-5.2c4.5,0,8.4,1.3,11.5,3.8c3.1,2.5,5.1,6.3,5.9,11.2h-11.5c-0.9-3.3-2.9-4.9-5.9-4.9
					c-2,0-3.5,0.6-4.5,1.9c-0.6,0.8-1,1.9-1.3,3.4c-0.3,1.5-0.4,4.1-0.4,8c0,3.8,0.1,6.5,0.4,8c0.3,1.5,0.7,2.6,1.3,3.4
					c1,1.3,2.5,1.9,4.5,1.9c3,0,5-1.6,5.9-4.9H284.7z"/>
				<path class="st0" d="M318.9,122.1h-31.3v-46h31.3v10.1h-20v7.7H316v10.1H299v8.1h20V122.1z"/>
				<path class="st0" d="M348.7,122.1h-11.3v-46h11.3V122.1z"/>
				<path class="st0" d="M390.4,122.1h-9.9L365.8,99v23.1h-11.3v-46h9.9l14.7,23.1V76.1h11.3V122.1z"/>
				<path class="st0" d="M430.4,99.1c0,0.4,0,1.2,0,2.3c0,1.2,0,2,0,2.4c0,0.4,0,1.1,0,2.1c0,1-0.1,1.7-0.2,2.2
					c-0.1,0.5-0.2,1.1-0.4,1.9c-0.1,0.8-0.3,1.5-0.6,2.1c-0.3,0.5-0.5,1.2-0.9,1.8c-0.3,0.7-0.7,1.3-1.2,1.9c-0.5,0.6-1,1.2-1.6,1.8
					c-3,3-7.2,4.5-12.4,4.5h-17.1v-46h17.1c5.3,0,9.4,1.5,12.4,4.5c0.6,0.6,1.2,1.3,1.7,2.1c0.5,0.8,0.9,1.4,1.3,2
					c0.3,0.6,0.6,1.3,0.8,2.3c0.2,1,0.4,1.7,0.5,2.1c0.1,0.4,0.2,1.3,0.3,2.5c0.1,1.2,0.1,2,0.1,2.3c0,0.3,0,1.2,0,2.7
					C430.4,98,430.4,98.9,430.4,99.1z M418.9,106.5c0.2-1.2,0.3-3.7,0.3-7.4c0-3.7-0.1-6.2-0.3-7.4c-0.2-1.2-0.5-2.2-1-2.9
					c-1.2-1.7-3-2.6-5.4-2.6h-5V112h5c2.5,0,4.3-0.9,5.4-2.6C418.4,108.8,418.7,107.8,418.9,106.5z"/>
				<path class="st0" d="M466.2,122.1h-31.3v-46h31.3v10.1h-20v7.7h17.1v10.1h-17.1v8.1h20V122.1z"/>
				<path class="st1" d="M509,122.1h-12.9l-7.6-14.2l-7.6,14.2H468l14.4-23.6l-13.4-22.4h12.9l6.7,13l6.7-13h12.9l-13.4,22.4
					L509,122.1z"/>
				<path class="st0" d="M490.6,85.1l4.6-9h12.9l-11.5,19.2l-5.1-8.6L490.6,85.1z M496.5,101.6l-5.1,8.6l-0.9,1.6l5.5,10.4H509
					L496.5,101.6z"/>
				<polygon class="st0" points="489,88.2 481.8,76.1 468.9,76.1 482.4,98.5 468,122.1 480.9,122.1 488.9,108.7 495,98.4 				"/>
			</g>
		</g>
	</g>
	<g>
		<ellipse transform="matrix(0.1837 -0.983 0.983 0.1837 -11.6657 125.9528)" class="st0" cx="70" cy="70" rx="70" ry="70"/>
		<path class="st2" d="M21.2,74.8c0.5,0.1,1,0.1,1.4,0.1c1.8,0,3.5-0.6,4.8-1.7c4.3,2.8,10,5.4,17,6.2c1.1,0.1,2.1,0.2,3.2,0.2
			c3,0,6-0.5,8.6-1.2c2.3,3.7,6.1,6.5,10.8,7.4c0.8,0.2,1.7,0.2,2.5,0.3c-0.5,3.7-1.6,7.5-3.8,11c-2.9,4.6-6.8,7.5-10.7,9.5
			c-1.7-4.2-5.5-7.4-10.3-8.3C43.9,98.1,43,98,42.2,98c-6.5,0-12.4,4.7-13.6,11.3c-1.4,7.5,3.6,14.8,11.1,16.2
			c0.9,0.2,1.7,0.2,2.6,0.2c6.5,0,12.4-4.7,13.6-11.3c0.3-1.5,0.3-3.1,0.1-4.5c4.5-2.1,9.1-5.6,12.6-11c2.7-4.2,3.9-8.8,4.4-13.1
			c4.9-0.9,9.1-4.1,11.4-8.6c2,1.5,3.8,3.4,5.2,5.8c2.6,4.3,2.6,9.4,1.9,13.3c-0.2,0-0.3,0-0.5,0h0l0,2.9c0.3,0,0.6,0,0.9,0.1
			c2.6,0.5,4.3,3,3.8,5.6c-0.4,2.3-2.4,3.9-4.7,3.9c-0.3,0-0.6,0-0.9-0.1c-2.6-0.5-4.3-3-3.8-5.6c0.4-2.3,2.4-3.9,4.7-3.9v-2.9
			c-3.7,0-6.9,2.6-7.6,6.3c-0.8,4.2,2,8.2,6.2,9c0.5,0.1,1,0.1,1.4,0.1c3.7,0,6.9-2.6,7.6-6.3c0.6-3.4-1-6.6-3.9-8.2
			c0.8-4.6,0.9-10.7-2.3-16c-1.9-3.2-4.3-5.6-6.9-7.4c0.1-0.3,0.2-0.7,0.2-1c0.7-3.6,0.1-7.1-1.4-10.2c2.9-1,6.2-1.6,9.9-1.6
			c7,0,13.1,2.4,17.7,4.9c-0.4,0.9-0.8,1.8-0.9,2.8c-1.1,5.8,2.7,11.3,8.5,12.4c0.7,0.1,1.3,0.2,2,0.2c5,0,9.5-3.6,10.4-8.7
			c1.1-5.8-2.7-11.3-8.5-12.4c-0.7-0.1-1.3-0.2-2-0.2c-2.9,0-5.5,1.2-7.5,3.1c-5-2.8-11.8-5.5-19.7-5.5c-4.5,0-8.4,0.8-11.8,2.1
			c-2.3-2.9-5.6-5-9.6-5.7c-0.9-0.2-1.9-0.3-2.8-0.3c0.5-3.6,1.6-7.5,3.9-11.1c4-6.3,9.7-9.8,14.4-11.8c1.2,2.5,3.6,4.4,6.6,5
			c0.6,0.1,1.1,0.2,1.7,0.2c4.4,0,8.2-3.1,9.1-7.5c0.9-5-2.4-9.8-7.4-10.8c-0.6-0.1-1.1-0.2-1.7-0.2c-4.4,0-8.2,3.1-9.1,7.5
			c-0.2,0.9-0.2,1.7-0.1,2.5c-5.2,2.2-11.7,6.1-16.3,13.3c-2.8,4.4-4,9-4.5,13.2c-4.6,1-8.6,3.9-10.9,8.1c-2.8-1.9-5.6-4.3-8-7.5
			c-4.3-5.5-5.6-11.3-5.7-16.2c0.1,0,0.1,0,0.2,0c5.6,0,10.5-4,11.6-9.6c1.2-6.4-3-12.6-9.4-13.8c-0.7-0.1-1.5-0.2-2.2-0.2
			c-5.6,0-10.5,4-11.6,9.6c-1.1,5.9,2.4,11.6,8,13.4c0,5.6,1.5,12.4,6.5,18.8c2.9,3.7,6.2,6.5,9.4,8.6c-0.1,0.5-0.3,1-0.4,1.5
			c-0.5,2.9-0.3,5.7,0.6,8.3c-3.1,0.8-6.5,1.2-10,0.8c-6.2-0.7-11.3-3-15.3-5.5c0.3-0.6,0.6-1.3,0.7-2.1c0.8-4.2-2-8.3-6.3-9.1
			c-0.5-0.1-1-0.1-1.4-0.1c-3.7,0-7,2.6-7.7,6.4C14.1,69.9,16.9,74,21.2,74.8z M40.7,35.2c-4.6-0.9-7.6-5.3-6.8-9.9
			c0.7-4,4.2-6.9,8.3-6.9h0c0.5,0,1,0,1.6,0.1c2.2,0.4,4.1,1.7,5.4,3.5c1.3,1.9,1.8,4.1,1.3,6.3c-0.7,4-4.2,6.9-8.3,6.9
			C41.7,35.4,41.2,35.3,40.7,35.2z M90.4,25.7c0.6-3,3.2-5.1,6.2-5.1h0c0.4,0,0.8,0,1.2,0.1c3.4,0.6,5.7,3.9,5,7.3
			c-0.6,3-3.2,5.1-6.2,5.1c-0.4,0-0.8,0-1.2-0.1C92.1,32.4,89.8,29.1,90.4,25.7z M114.3,69.5c0.6-3.4,3.6-5.9,7.1-5.9
			c0.4,0,0.9,0,1.3,0.1c3.9,0.7,6.6,4.5,5.8,8.5c-0.6,3.4-3.6,5.9-7.1,5.9c-0.4,0-0.9,0-1.3-0.1C116.2,77.2,113.6,73.4,114.3,69.5z
			 M52.5,113.8c-0.9,5-5.3,8.6-10.3,8.6c-0.6,0-1.3-0.1-1.9-0.2c-2.8-0.5-5.2-2.1-6.7-4.4c-1.6-2.3-2.2-5.1-1.7-7.9
			c0.9-5,5.3-8.6,10.3-8.6c0.6,0,1.3,0.1,1.9,0.2c2.8,0.5,5.2,2.1,6.7,4.4C52.5,108.2,53.1,111,52.5,113.8z M17.8,66.2
			c0.4-2.3,2.5-4,4.8-4c0.3,0,0.6,0,0.9,0.1c2.7,0.5,4.4,3.1,3.9,5.7c-0.4,2.3-2.5,4-4.8,4c-0.3,0-0.6,0-0.9-0.1
			C19,71.4,17.3,68.8,17.8,66.2z"/>
		<path d="M61,33.1"/>
	</g>
</g>
</svg>
