<?xml version="1.0" encoding="utf-8"?>
<!-- Generator: Adobe Illustrator 21.0.0, SVG Export Plug-In . SVG Version: 6.00 Build 0)  -->
<svg version="1.1" id="Слой_1" xmlns="http://www.w3.org/2000/svg" xmlns:xlink="http://www.w3.org/1999/xlink" x="0px" y="0px"
	 viewBox="0 0 370 300" style="enable-background:new 0 0 370 300;" xml:space="preserve">
<style type="text/css">
	.st0{opacity:0.75;}
	.st1{fill:#5AA245;}
	.st2{fill:none;stroke:#5AA245;stroke-width:1.8;}
	.st3{opacity:0.5;}
	.st4{opacity:0.9;}
</style>
<g class="st0">
	<path class="st1" d="M226.3,107.7c0,0.2,0,0.5,0,0.7c0,0.2,0,0.3,0,0.5c0,0.2,0,0.4,0,0.6c0.1,0.7,0.1,1.3,0.3,2
		c0.1,0.2,0.1,0.5,0.2,0.7c0.1,0.4,0.2,0.7,0.3,1.1c0,0.1,0.1,0.2,0.1,0.3c0,0.1,0,0.1,0.1,0.2c0,0,0,0.1,0,0.1
		c0.6,1.7,1.6,3.2,2.8,4.4c2.7,3,6.6,4.8,10.9,4.8c8.1,0,14.7-6.6,14.7-14.7c0-6.1-6.1-11.7-9-18.1c-0.2-0.4-0.5-0.7-0.8-1
		c0.6-0.2,0.2-0.6,0.5-1.3c0.9-0.1,1.4-0.4,1.4-1c0-0.4-0.4-0.9-1-1.2c0-0.1,0-0.2,0-0.3c0-0.2,0-0.5,0-0.7c0.6-0.2,1-0.4,1-0.9
		c0-0.5-0.5-1-1.4-1.4c-0.1-0.3-0.2-0.6-0.3-0.9c0.6-0.1,1-0.4,1-0.8c0-0.7-0.9-1.3-2.3-1.7c-1.2-1.7-1.9-2.7-3.7-2.7
		c-1.8,0-2.5,1-3.7,2.7c-1.4,0.4-2.3,1-2.3,1.7c0,0.4,0.4,0.7,1,0.8c-0.1,0.3-0.2,0.6-0.3,0.9c-0.9,0.4-1.4,0.9-1.4,1.4
		c0,0.5,0.4,0.7,1,0.9c0,0.2,0,0.4,0,0.7c0,0.1,0,0.2,0,0.3c-0.6,0.4-1,0.8-1,1.2c0,0.5,0.2,0.7,1.1,0.9c0.3,0.6,0,1,0.5,1.2
		c-0.3,0.3-0.5,0.6-0.7,1.1C233.4,96.5,226.6,101.8,226.3,107.7z M242.1,90.9c0.7,3.2,2.3,10,2.9,12.9c-0.6-0.6-1.4-1.3-1.5-1.5
		c-0.1-0.1-0.2-0.1-0.3-0.1c0,0-0.1,0-0.1,0c0,0,0,0,0,0c-0.2,0-0.3,0.1-0.4,0.2l0,0c0,0-0.5,0.7-1,1.4c-0.3,0.4-0.5,0.7-0.7,1
		c-0.6-0.7-1.7-2.2-2-2.4c0,0-0.1-0.1-0.1-0.1c0,0,0,0,0,0c0,0-0.1,0-0.1,0c0,0-0.1,0-0.1,0c-0.1,0-0.2,0-0.3,0.1l0,0l0,0h0l0,0
		c0,0-0.8,0.8-1.5,1.5c0.7-2.9,2.2-9.7,2.9-12.9c0.4,0,0.8,0,1.2,0C241.3,90.9,241.7,90.9,242.1,90.9z M236.3,92.5
		c0.4-1.2,1.4-1.5,2.5-1.6c-0.9,4-2.9,12.9-3.2,14c0,0.1,0,0.3,0.1,0.4c0,0.1,0.1,0.2,0.1,0.2c0.2,0.2,0.5,0.2,0.7,0
		c0.2-0.2,1.5-1.5,2.2-2.1c0.6,0.8,1.9,2.4,1.9,2.4l0,0c0,0,0,0.1,0.1,0.1c0.2,0.2,0.5,0.2,0.7,0c0.2-0.3,1.4-1.8,1.9-2.6
		c0.7,0.7,2.2,2.2,2.2,2.2c0.2,0.2,0.5,0.2,0.7,0c0.1-0.1,0.1-0.1,0.1-0.2c0.1-0.1,0.1-0.2,0.1-0.4c-0.2-1.1-2.2-9.9-3.2-13.9
		c1.2,0.2,2.3,0.6,2.8,1.6c2.4,5.4,7.6,10.3,7.6,15.4c0,6.9-5.6,12.5-12.5,12.5c-3.7,0-7-1.6-9.3-4.1c-1-1.1-1.8-2.4-2.3-3.8
		c0,0,0-0.1,0-0.1c0,0,0-0.1,0-0.1c0-0.1-0.1-0.1-0.1-0.2c-0.1-0.3-0.2-0.6-0.3-0.9c-0.1-0.2-0.1-0.4-0.1-0.6
		c-0.1-0.5-0.2-1.1-0.2-1.7c0-0.2,0-0.3,0-0.5c0-0.1,0-0.3,0-0.4c0-0.2,0-0.4,0-0.6C228.8,102.4,234.5,97.8,236.3,92.5z"/>
	<line class="st2" x1="241" y1="78.5" x2="241" y2="0"/>
</g>
<g>
	<g>
		<g>
			<path class="st1" d="M180.7,63.5l-7.1,7c-2.3,2.3-2.3,6,0,8.3l16.9,17c2.3,2.3,6,2.3,8.3,0l7.1-7c2.3-2.3,2.3-6,0-8.3l-16.9-17
				C186.7,61.2,183,61.2,180.7,63.5z M194.6,71.8c2.1,2.1,2.1,5.6,0,7.7l-5.1,5c-2.1,2.1-5.6,2.1-7.7,0l-6-6c-2.1-2.1-2.1-5.6,0-7.7
				l5.1-5c2.1-2.1,5.6-2.1,7.7,0L194.6,71.8z M196.8,93.1l-2.4,2.4c-0.4,0.3-0.9,0.3-1.3,0c-0.4-0.4-0.3-0.9,0-1.3l2.4-2.4
				c0.4-0.4,0.9-0.4,1.3,0C197.2,92.2,197.2,92.7,196.8,93.1z M194.3,90.6l-2.4,2.4c-0.4,0.4-0.9,0.4-1.3,0c-0.4-0.4-0.4-0.9,0-1.3
				l2.4-2.4c0.4-0.4,0.9-0.3,1.3,0C194.7,89.6,194.7,90.2,194.3,90.6z M191.8,88.1l-2.4,2.4c-0.4,0.3-0.9,0.3-1.3,0
				c-0.4-0.4-0.3-0.9,0-1.3l2.4-2.4c0.4-0.4,0.9-0.4,1.3,0C192.2,87.1,192.2,87.7,191.8,88.1z M201.3,88.6l-2.4,2.4
				c-0.4,0.3-0.9,0.3-1.3,0c-0.4-0.4-0.4-0.9,0-1.3l2.4-2.4c0.4-0.4,0.9-0.4,1.3,0C201.7,87.7,201.7,88.3,201.3,88.6z M198.8,86.1
				l-2.4,2.4c-0.4,0.4-0.9,0.4-1.3,0c-0.4-0.4-0.4-0.9,0-1.3l2.4-2.4c0.4-0.4,0.9-0.4,1.3,0C199.2,85.2,199.2,85.8,198.8,86.1z
				 M196.3,83.6l-2.4,2.4c-0.4,0.4-0.9,0.3-1.3,0c-0.3-0.4-0.3-0.9,0-1.3l2.4-2.4c0.4-0.4,0.9-0.3,1.3,0
				C196.7,82.7,196.7,83.3,196.3,83.6z M205.8,84.2l-2.4,2.4c-0.4,0.4-1,0.4-1.3,0c-0.4-0.4-0.3-0.9,0-1.3l2.4-2.4
				c0.4-0.3,0.9-0.3,1.3,0C206.2,83.2,206.2,83.8,205.8,84.2z M203.3,81.6l-2.4,2.4c-0.4,0.4-1,0.4-1.3,0c-0.4-0.4-0.4-0.9,0-1.3
				l2.4-2.4c0.4-0.4,0.9-0.4,1.3,0C203.6,80.7,203.6,81.3,203.3,81.6z M200.8,79.2l-2.4,2.4c-0.4,0.4-0.9,0.4-1.3,0
				c-0.4-0.4-0.3-0.9,0-1.3l2.4-2.4c0.4-0.4,0.9-0.4,1.3,0C201.2,78.2,201.2,78.8,200.8,79.2z"/>
		</g>
	</g>
	<line class="st2" x1="185" y1="63.6" x2="185" y2="0"/>
</g>
<g class="st3">
	<g>
		<g>
			<g>
				<path class="st1" d="M106.5,19.4L76.9,49c-1.4,1.4-1.4,3.7,0,5.1l22.3,22.3c1.4,1.4,3.7,1.4,5.1,0l9.5-9.5
					c-0.5,0.5-0.5,1.3,0,1.8l2.5,4.3c0.5,0.5,1.3,0.5,1.8,0l12.4-12.4c0.5-0.5,0.5-1.3,0-1.8l-4.3-2.5c-0.5-0.5-1.3-0.5-1.8,0
					l9.5-9.5c1.4-1.4,1.4-3.7,0-5.1l-22.3-22.3C110.2,18,107.9,18,106.5,19.4z M126.5,38.3c1.2,1.2,1.3,3.3,0,4.5L100.3,69
					c-1.2,1.2-3.3,1.2-4.5,0L80.7,53.9c-1.2-1.2-1.2-3.3,0-4.5l26.2-26.2c1.2-1.2,3.3-1.2,4.5,0L126.5,38.3z"/>
			</g>
		</g>
	</g>
	<line class="st2" x1="109" y1="19.9" x2="109" y2="0"/>
</g>
<g>
	<line class="st2" x1="212" y1="0" x2="212" y2="106"/>
	<g>
		<g>
			<path class="st1" d="M178.4,156.5c5.6,5.6,12.8,7.4,22.6-2.5c11.3-11.3,12.2-15.8,11.2-29.6c7.7-9,5.4-15.5,1.7-19.2
				c-0.5-0.5-1.1-1-1.7-1.4l-4.6,4.6c2.7,3,2.6,7.5-0.3,10.4c-2.8,2.8-7.4,2.9-10.4,0.3l-16.2,16.2c2.7,3,2.6,7.5-0.3,10.4
				c-2.6,2.6-6.6,2.9-9.5,0.9C170.5,150.5,174.7,152.8,178.4,156.5z M197.8,143.4c-1.3-1.3-1.3-3.4,0-4.7l7.8-7.8
				c1.3-1.3,5-2.1,4.9,3.2c-0.1,5.3-2.4,9-3.7,10.3l-1.6,1.6c-1.3,1.3-3.7,1-4.9-0.3L197.8,143.4z M183.9,152.5l7.8-7.8
				c1.3-1.3,3.4-1.3,4.7,0l2.4,2.4c1.3,1.3,1.5,3.7,0.3,5l-4,4c-2.5,2.5-6,3.5-8,2.4C183.9,156.9,181.8,154.7,183.9,152.5z"/>
			<g>
				<path class="st1" d="M205.7,117.2c2.1-2.1,2.1-5.4,0-7.5c-2.1-2.1-5.4-2.1-7.5,0c-2.1,2.1-2.1,5.4,0,7.5
					C200.3,119.3,203.7,119.3,205.7,117.2z M199.8,111.3c1.2-1.2,3.1-1.2,4.3,0c1.2,1.2,1.2,3.1,0,4.4c-1.2,1.2-3.1,1.2-4.3,0
					C198.6,114.4,198.6,112.5,199.8,111.3z"/>
				<path class="st1" d="M178.9,144c2.1-2.1,2.1-5.4,0-7.5c-2.1-2.1-5.4-2.1-7.5,0c-2.1,2.1-2.1,5.4,0,7.5
					C173.5,146.1,176.8,146.1,178.9,144z M173,138.1c1.2-1.2,3.1-1.2,4.3,0c1.2,1.2,1.2,3.2,0,4.4c-1.2,1.2-3.2,1.2-4.4,0
					C171.8,141.3,171.8,139.3,173,138.1z"/>
			</g>
		</g>
	</g>
</g>
<g class="st0">
	<line class="st2" x1="272" y1="0" x2="272" y2="45.8"/>
	<g>
		<g>
			<path class="st1" d="M268.6,44c-6.5,0-11.8,3.2-11.8,14.7c0,13.3,2.1,16.3,10.8,23.8c0.7,9.7,5.9,12.2,10.2,12.2
				c0.6,0,1.2-0.1,1.8-0.2v-5.3c-3.3-0.2-5.9-2.9-5.9-6.2c0-3.3,2.6-6,5.9-6.2V57.9c-3.3-0.2-5.9-2.9-5.9-6.2c0-3,2.2-5.6,5-6.1
				C276.7,42.9,272.9,44,268.6,44z M264.9,63.1c1.5,0,2.7,1.2,2.7,2.7v9.1c0,1.5-1.7,4.2-4.7,1c-3.1-3.2-3.9-6.6-3.9-8.2v-1.9
				c0-1.5,1.5-2.7,3-2.7H264.9z M267.6,49.6v9.1c0,1.5-1.2,2.7-2.7,2.7h-2.8c-1.5,0-3-1.2-3-2.7l0-4.7c0-2.9,1.5-5.6,3.3-6.1
				C265.1,47,267.6,47,267.6,49.6z"/>
			<g>
				<path class="st1" d="M275.5,83c0,2.4,2,4.4,4.4,4.4c2.4,0,4.4-2,4.4-4.4c0-2.4-2-4.4-4.4-4.4C277.5,78.6,275.6,80.5,275.5,83z
					 M282.5,83c0,1.4-1.1,2.5-2.5,2.5c-1.4,0-2.5-1.1-2.5-2.5c0-1.4,1.1-2.5,2.5-2.5C281.3,80.4,282.5,81.6,282.5,83z"/>
				<path class="st1" d="M275.5,51.6c0,2.4,2,4.4,4.4,4.4c2.4,0,4.4-2,4.4-4.4c0-2.4-2-4.4-4.4-4.4
					C277.5,47.2,275.6,49.2,275.5,51.6z M282.5,51.6c0,1.4-1.1,2.5-2.5,2.5c-1.4,0-2.5-1.1-2.5-2.5c0-1.4,1.1-2.5,2.5-2.5
					C281.3,49.1,282.5,50.2,282.5,51.6z"/>
			</g>
		</g>
	</g>
</g>
<g class="st4">
	<line class="st2" x1="162" y1="17.4" x2="162" y2="0"/>
	<g>
		<g>
			<g>
				<path class="st1" d="M161.5,17c-4.2,0-7.6,3.4-7.6,7.6c0,3.8,2.8,6.9,6.4,7.5v2.9c-0.1,0.1-0.1,0.3-0.1,0.4c0,0.1,0,0.2,0.1,0.3
					c0.1,0.2,0.2,0.3,0.3,0.4v0l9.3,7.9l-1.5,0.5c-1.3-2.5-3.8-4.3-6.8-4.3c-4.2,0-7.6,3.4-7.6,7.6c0,4.2,3.4,7.6,7.6,7.6
					c4.2,0,7.6-3.4,7.6-7.6c0-0.7-0.1-1.3-0.2-1.9l7.2-2.7c0.3-0.1,0.4-0.3,0.5-0.5c0.1-0.1,0.2-0.2,0.3-0.4l0.7-2.6
					c0.1-0.4-0.1-0.9-0.5-1c-0.4-0.1-0.9,0.1-1,0.5l-0.7,2.6l-3.3,1.2V31.8c0,0,0-0.1,0-0.1l1.8-0.7v1.2c0,0.4,0.4,0.8,0.8,0.8
					c0.4,0,0.8-0.4,0.8-0.8v-4.1c0-0.4-0.4-0.8-0.8-0.8c-0.4,0-0.8,0.4-0.8,0.8v1.1c0,0,0,0-0.1,0l-3.1,1.3l-2.6-2.1
					c0.7-1.1,1.1-2.5,1.1-3.9C169.2,20.4,165.7,17,161.5,17z M166.9,45.2l-5.7,2.1c-0.3,0.1-0.5,0.4-0.5,0.7c0,0.1,0,0.2,0.1,0.3
					c0.1,0.4,0.6,0.6,1,0.5l5.7-2.1c0.1,0.4,0.2,0.9,0.2,1.3c0,3.3-2.7,6.1-6.1,6.1c-3.3,0-6.1-2.7-6.1-6.1c0-3.3,2.7-6.1,6.1-6.1
					C163.9,42,165.9,43.3,166.9,45.2z M169.1,31.2l-7.2,3v-2.1c2.1-0.1,4-1,5.3-2.5L169.1,31.2z M161.9,30.7v-5l4.1,3.2
					C164.9,29.9,163.5,30.6,161.9,30.7z M170.5,42.6l-8.1-6.9l8-3.4l0,0V42.6z M161.5,18.6c3.3,0,6.1,2.7,6.1,6.1
					c0,1.1-0.3,2-0.7,2.9l-5.2-4c-0.1-0.1-0.3-0.2-0.4-0.3c0,0,0,0,0,0c0,0-0.1,0-0.1,0c0,0,0,0-0.1,0c-0.2,0-0.5,0.1-0.6,0.3
					c-0.1,0.1-0.2,0.3-0.2,0.5c0,0.1,0,0.2,0.1,0.3v6.3c-2.8-0.6-4.8-3-4.8-5.9C155.5,21.3,158.2,18.6,161.5,18.6z"/>
			</g>
		</g>
	</g>
</g>
<g class="st0">
	<line class="st2" x1="147" y1="0" x2="147" y2="80.7"/>
	<g>
		<polygon class="st1" points="120.3,105 134.9,91.9 124.6,87.7 110,100.7 		"/>
		<polygon class="st1" points="149.3,127.9 129.8,128.5 120.6,105.6 140.1,104.9 		"/>
		<polygon class="st1" points="150.4,127.4 165,114.4 155.7,91.4 141.2,104.4 		"/>
		<polygon class="st1" points="155.4,90.8 136,91.5 140.3,81 159.8,79.1 		"/>
		<polygon class="st1" points="140.2,104.9 120.8,105.6 108.7,111.9 128.2,110 		"/>
		<polygon class="st1" points="141.7,104.2 156.3,91.2 165.6,88.1 151.1,101.1 		"/>
	</g>
</g>
<g>
	<path class="st1" d="M272,295.1l6.6-2.7l2.3-0.9c3.1-1.3,4.5-4.9,3.3-8l-31.2-74c-1.3-3.1-4.9-4.6-8-3.3l-2.5,1.1l-6.2,2.9
		L272,295.1z"/>
	<path class="st1" d="M274.3,258.3c-2,0.8-4.4-0.1-5.2-2.1l-6.7-15.9c-0.8-2,0.1-4.4,2.1-5.2l0,0c2-0.8,4.4,0.1,5.2,2.1l6.7,15.9
		C277.3,255.1,276.3,257.5,274.3,258.3L274.3,258.3z"/>
</g>
<path class="st1" d="M122.3,157.4l6.4,133.6c0,5,4.1,9.1,9,9.1l94.3,0c5,0,9.1-4.1,9-9.1l6.6-133.6L122.3,157.4z M185,264.3
	c-21.9,0-39.6-17.7-39.6-39.6s17.7-39.6,39.6-39.6c21.9,0,39.6,17.7,39.6,39.6S206.9,264.3,185,264.3z"/>
<g>
	<path class="st1" d="M201.3,203.3c1.1,0.8,1.5,2.3,1,3.6c-0.4,1.4-4,12.3-4,12.3l2.1,8.1c0,0-5.7-0.9-8.4-1.4
		c-3.7-0.8-5.2-2.9-3.9-7c0.6-1.9,6.5-20.3,6.5-20.3S200.4,202.5,201.3,203.3z"/>
	<path class="st1" d="M174.2,198.9l18-0.7l-3.2,10l-11.6,0.5l-5.9,5.9c0,0-1.6-6.5-2.2-9C168.5,202.1,171.2,199,174.2,198.9z"/>
	<path class="st1" d="M157.1,222.4c0.2-1.4,1.2-2.4,2.6-2.7c1.4-0.3,12.7-2.7,12.7-2.7l5.9-5.9c0,0,2.1,5.4,3,8c1.2,3.6,0,6-4.1,6.9
		c-2,0.4-20.9,4.5-20.9,4.5S156.9,223.6,157.1,222.4z"/>
	<path class="st1" d="M175.1,249c-2.6,2.4-6.6,1.6-8.3-0.9l-9.6-15.2l10.2-2.2l6.2,9.8l8.1,2.2C181.7,242.7,176.9,247.3,175.1,249z"
		/>
	<path class="st1" d="M195.7,251.1c-1.3,0.5-2.7,0.1-3.6-0.9c-0.9-1.1-8.7-9.6-8.7-9.6l-8.1-2.2c0,0,3.6-4.5,5.5-6.6
		c2.5-2.8,5.1-3,8,0.1c1.4,1.5,14.3,15.8,14.3,15.8S196.9,250.7,195.7,251.1z"/>
	<path class="st1" d="M204.7,245.8l-7-7.8l5.4-10.3l-2.1-8.1c0,0,6.4,1.8,8.8,2.6c3.4,1.1,4.7,4.9,3.3,7.6L204.7,245.8z"/>
</g>
</svg>
