<?xml version="1.0" encoding="UTF-8" standalone="no"?>
<!-- Created with Inkscape (http://www.inkscape.org/) -->

<svg
   xmlns:dc="http://purl.org/dc/elements/1.1/"
   xmlns:cc="http://creativecommons.org/ns#"
   xmlns:rdf="http://www.w3.org/1999/02/22-rdf-syntax-ns#"
   xmlns:svg="http://www.w3.org/2000/svg"
   xmlns="http://www.w3.org/2000/svg"
   xmlns:sodipodi="http://sodipodi.sourceforge.net/DTD/sodipodi-0.dtd"
   xmlns:inkscape="http://www.inkscape.org/namespaces/inkscape"
   width="172.54202mm"
   height="28.670143mm"
   viewBox="0 0 172.54202 28.670143"
   version="1.1"
   id="svg8"
   inkscape:version="0.92.3 (d244b95, 2018-08-02)"
   sodipodi:docname="klean_loop_logo.svg">
  <defs
     id="defs2">
    <clipPath
       id="clipPath64"
       clipPathUnits="userSpaceOnUse">
      <path
         inkscape:connector-curvature="0"
         id="path62"
         d="M 0,540 H 950 V 0 H 0 Z" />
    </clipPath>
  </defs>
  <sodipodi:namedview
     id="base"
     pagecolor="#ffffff"
     bordercolor="#666666"
     borderopacity="1.0"
     inkscape:pageopacity="0.0"
     inkscape:pageshadow="2"
     inkscape:zoom="0.35"
     inkscape:cx="-182.50777"
     inkscape:cy="-48.677324"
     inkscape:document-units="mm"
     inkscape:current-layer="layer1"
     showgrid="false"
     fit-margin-top="0"
     fit-margin-left="0"
     fit-margin-right="0"
     fit-margin-bottom="0"
     inkscape:window-width="1920"
     inkscape:window-height="1052"
     inkscape:window-x="1920"
     inkscape:window-y="0"
     inkscape:window-maximized="1" />
  <metadata
     id="metadata5">
    <rdf:RDF>
      <cc:Work
         rdf:about="">
        <dc:format>image/svg+xml</dc:format>
        <dc:type
           rdf:resource="http://purl.org/dc/dcmitype/StillImage" />
        <dc:title></dc:title>
      </cc:Work>
    </rdf:RDF>
  </metadata>
  <g
     inkscape:label="Layer 1"
     inkscape:groupmode="layer"
     id="layer1"
     transform="translate(-19.562323,-107.28398)">
    <g
       transform="matrix(0.35277777,0,0,-0.35277777,-54.525101,220.22462)"
       inkscape:label="KleanLoop_logo-Oct 2"
       id="g56">
      <g
         id="g58">
        <g
           clip-path="url(#clipPath64)"
           id="g60">
          <g
             transform="translate(274.9521,312.752)"
             id="g66">
            <path
               inkscape:connector-curvature="0"
               id="path68"
               style="fill:#5aa245;fill-opacity:1;fill-rule:nonzero;stroke:none"
               d="m 0,0 c 1.542,-1.224 2.094,-3.259 1.443,-5.205 -0.648,-1.947 -5.785,-17.778 -5.785,-17.78 l 3.099,-11.668 c 0,0 -8.213,1.271 -12.153,2.078 -5.353,1.096 -7.46,4.253 -5.633,10.072 0.868,2.77 9.426,29.308 9.426,29.308 0,0 8.224,-5.714 9.603,-6.805" />
          </g>
          <g
             transform="translate(235.8574,319.1367)"
             id="g70">
            <path
               inkscape:connector-curvature="0"
               id="path72"
               style="fill:#5aa245;fill-opacity:1;fill-rule:nonzero;stroke:none"
               d="m 0,0 25.966,1.01 -4.609,-14.389 -16.76,-0.703 -8.554,-8.475 c 0,0 -2.342,9.337 -3.155,12.913 C -8.25,-4.639 -4.384,-0.166 0,0" />
          </g>
          <g
             transform="translate(211.1016,285.1982)"
             id="g74">
            <path
               inkscape:connector-curvature="0"
               id="path76"
               style="fill:#5aa245;fill-opacity:1;fill-rule:nonzero;stroke:none"
               d="m 0,0 c 0.288,1.951 1.777,3.445 3.786,3.857 2.011,0.408 18.289,3.876 18.291,3.876 l 8.556,8.521 c 0,0 3.007,-7.749 4.275,-11.564 1.732,-5.186 0.046,-8.59 -5.905,-9.918 -2.829,-0.63 -30.093,-6.482 -30.093,-6.482 0,0 0.837,9.972 1.09,11.71" />
          </g>
          <g
             transform="translate(237.0327,246.8145)"
             id="g78">
            <path
               inkscape:connector-curvature="0"
               id="path80"
               style="fill:#5aa245;fill-opacity:1;fill-rule:nonzero;stroke:none"
               d="M 0,0 C -3.771,-3.49 -9.574,-2.374 -11.912,1.336 L -25.768,23.317 -11.005,26.52 -2.016,12.359 9.599,9.188 C 9.599,9.188 2.691,2.493 0,0" />
          </g>
          <g
             transform="translate(266.8672,243.7578)"
             id="g82">
            <path
               inkscape:connector-curvature="0"
               id="path84"
               style="fill:#5aa245;fill-opacity:1;fill-rule:nonzero;stroke:none"
               d="m 0,0 c -1.832,-0.721 -3.872,-0.185 -5.23,1.353 -1.36,1.534 -12.5,13.898 -12.5,13.901 l -11.659,3.15 c 0,0 5.207,6.482 7.873,9.487 3.63,4.092 7.416,4.33 11.543,-0.157 C -8.013,25.599 10.693,4.911 10.693,4.911 10.693,4.911 1.633,0.649 0,0" />
          </g>
          <g
             transform="translate(279.832,251.4326)"
             id="g86">
            <path
               inkscape:connector-curvature="0"
               id="path88"
               style="fill:#5aa245;fill-opacity:1;fill-rule:nonzero;stroke:none"
               d="m 0,0 -10.154,11.187 7.776,14.867 -3.066,11.641 c 0,0 9.255,-2.639 12.758,-3.72 4.907,-1.518 6.843,-7.101 4.799,-10.988 z" />
          </g>
          <g
             transform="translate(327.2764,311.8779)"
             id="g90">
            <path
               inkscape:connector-curvature="0"
               id="path92"
               style="fill:#5aa245;fill-opacity:1;fill-rule:nonzero;stroke:none"
               d="M 0,0 V -24.062 L 22.681,0 H 38.615 L 15.934,-22.925 40.81,-58.043 H 24.795 L 7.316,-31.948 0,-39.346 V -58.043 H -12.763 V 0 Z" />
          </g>
          <path
             inkscape:connector-curvature="0"
             id="path94"
             style="fill:#5aa245;fill-opacity:1;fill-rule:nonzero;stroke:none"
             d="m 383.855,253.835 h -11.544 v 58.043 h 11.544 z" />
          <g
             transform="translate(418.3643,286.0273)"
             id="g96">
            <path
               inkscape:connector-curvature="0"
               id="path98"
               style="fill:#5aa245;fill-opacity:1;fill-rule:nonzero;stroke:none"
               d="m 0,0 c -1.382,1.517 -3.483,2.275 -6.3,2.275 -1.843,0 -3.374,-0.312 -4.593,-0.934 -1.22,-0.624 -2.195,-1.396 -2.927,-2.317 -0.731,-0.922 -1.247,-1.898 -1.544,-2.926 -0.299,-1.031 -0.475,-1.952 -0.529,-2.764 H 2.886 C 2.344,-3.74 1.382,-1.519 0,0 m -13.047,-22.112 c 1.734,-1.681 4.227,-2.521 7.479,-2.521 2.329,0 4.335,0.582 6.015,1.748 1.679,1.165 2.71,2.399 3.089,3.699 h 10.162 c -1.626,-5.04 -4.119,-8.645 -7.479,-10.812 -3.361,-2.168 -7.426,-3.251 -12.194,-3.251 -3.306,0 -6.288,0.528 -8.942,1.585 -2.656,1.057 -4.906,2.56 -6.748,4.512 -1.843,1.951 -3.265,4.28 -4.268,6.991 -1.003,2.709 -1.504,5.69 -1.504,8.942 0,3.143 0.515,6.07 1.545,8.78 1.029,2.71 2.492,5.052 4.39,7.032 1.897,1.977 4.159,3.536 6.788,4.674 2.628,1.138 5.541,1.708 8.739,1.708 3.577,0 6.693,-0.692 9.349,-2.074 2.654,-1.381 4.837,-3.239 6.544,-5.568 1.707,-2.331 2.939,-4.987 3.699,-7.967 0.758,-2.981 1.029,-6.097 0.813,-9.348 h -30.323 c 0.163,-3.741 1.11,-6.451 2.846,-8.13" />
          </g>
          <g
             transform="translate(465.7979,274.4023)"
             id="g100">
            <path
               inkscape:connector-curvature="0"
               id="path102"
               style="fill:#5aa245;fill-opacity:1;fill-rule:nonzero;stroke:none"
               d="m 0,0 c -0.488,-0.435 -1.098,-0.772 -1.829,-1.017 -0.732,-0.244 -1.518,-0.447 -2.358,-0.609 -0.84,-0.163 -1.721,-0.299 -2.642,-0.407 -0.922,-0.109 -1.843,-0.243 -2.764,-0.406 -0.867,-0.163 -1.72,-0.38 -2.56,-0.651 -0.841,-0.271 -1.573,-0.638 -2.196,-1.097 -0.623,-0.461 -1.125,-1.044 -1.504,-1.748 -0.379,-0.705 -0.568,-1.599 -0.568,-2.682 0,-1.03 0.189,-1.899 0.568,-2.602 0.379,-0.705 0.895,-1.26 1.545,-1.667 0.651,-0.406 1.409,-0.69 2.277,-0.853 0.866,-0.162 1.76,-0.243 2.682,-0.243 2.277,0 4.037,0.378 5.285,1.137 1.246,0.758 2.167,1.666 2.763,2.724 0.596,1.057 0.962,2.126 1.098,3.211 C -0.068,-5.827 0,-4.959 0,-4.309 Z m -26.664,8.535 c 0.162,2.71 0.839,4.959 2.032,6.748 1.192,1.788 2.709,3.224 4.553,4.309 1.842,1.083 3.914,1.855 6.219,2.316 2.302,0.46 4.619,0.692 6.95,0.692 2.113,0 4.254,-0.151 6.422,-0.448 2.167,-0.298 4.146,-0.881 5.934,-1.748 1.789,-0.867 3.252,-2.073 4.39,-3.617 1.139,-1.545 1.708,-3.591 1.708,-6.138 v -21.868 c 0,-1.897 0.107,-3.713 0.325,-5.447 0.216,-1.734 0.596,-3.035 1.138,-3.901 H 1.301 c -0.218,0.65 -0.394,1.313 -0.529,1.991 -0.135,0.678 -0.231,1.368 -0.285,2.073 -1.842,-1.897 -4.01,-3.225 -6.503,-3.983 -2.493,-0.759 -5.04,-1.138 -7.641,-1.138 -2.006,0 -3.876,0.243 -5.61,0.731 -1.735,0.488 -3.252,1.247 -4.552,2.277 -1.301,1.028 -2.317,2.329 -3.048,3.901 -0.733,1.571 -1.098,3.442 -1.098,5.61 0,2.384 0.419,4.349 1.26,5.893 0.84,1.545 1.923,2.777 3.252,3.699 1.327,0.921 2.845,1.613 4.553,2.074 1.707,0.46 3.426,0.825 5.162,1.097 1.733,0.271 3.44,0.488 5.121,0.651 1.68,0.162 3.171,0.406 4.471,0.731 1.3,0.325 2.33,0.799 3.089,1.423 0.758,0.622 1.111,1.53 1.057,2.723 0,1.246 -0.203,2.235 -0.609,2.967 -0.408,0.732 -0.95,1.301 -1.626,1.707 -0.679,0.407 -1.464,0.677 -2.358,0.813 -0.894,0.135 -1.857,0.203 -2.886,0.203 -2.276,0 -4.065,-0.487 -5.366,-1.463 -1.301,-0.975 -2.059,-2.601 -2.276,-4.878 z" />
          </g>
          <g
             transform="translate(497.2578,295.8633)"
             id="g104">
            <path
               inkscape:connector-curvature="0"
               id="path106"
               style="fill:#5aa245;fill-opacity:1;fill-rule:nonzero;stroke:none"
               d="m 0,0 v -5.853 h 0.244 c 1.463,2.439 3.36,4.213 5.691,5.325 2.33,1.11 4.714,1.667 7.154,1.667 3.089,0 5.621,-0.421 7.6,-1.261 1.978,-0.841 3.537,-2.006 4.674,-3.495 1.139,-1.491 1.938,-3.307 2.399,-5.447 0.46,-2.142 0.691,-4.512 0.691,-7.114 v -25.85 H 16.909 v 23.737 c 0,3.468 -0.542,6.057 -1.626,7.764 -1.085,1.707 -3.008,2.56 -5.771,2.56 -3.144,0 -5.42,-0.934 -6.829,-2.804 -1.411,-1.87 -2.114,-4.947 -2.114,-9.227 v -22.03 H -10.975 V 0 Z" />
          </g>
          <g
             transform="translate(535.2207,311.8779)"
             id="g108">
            <path
               inkscape:connector-curvature="0"
               id="path110"
               style="fill:#414141;fill-opacity:1;fill-rule:nonzero;stroke:none"
               d="m 0,0 h 3.577 v -54.954 h 32.924 v -3.089 H 0 Z" />
          </g>
          <g
             transform="translate(574.9736,274.7275)"
             id="g112">
            <path
               inkscape:connector-curvature="0"
               id="path114"
               style="fill:#414141;fill-opacity:1;fill-rule:nonzero;stroke:none"
               d="m 0,0 c 0,-2.494 0.352,-4.892 1.057,-7.195 0.704,-2.304 1.734,-4.349 3.089,-6.138 1.354,-1.788 3.035,-3.211 5.041,-4.268 2.003,-1.056 4.308,-1.585 6.91,-1.585 2.6,0 4.903,0.529 6.909,1.585 2.005,1.057 3.685,2.48 5.04,4.268 1.354,1.789 2.385,3.834 3.09,6.138 0.703,2.303 1.056,4.701 1.056,7.195 0,2.492 -0.353,4.89 -1.056,7.194 -0.705,2.303 -1.736,4.349 -3.09,6.138 -1.355,1.788 -3.035,3.211 -5.04,4.268 -2.006,1.056 -4.309,1.585 -6.909,1.585 -2.602,0 -4.907,-0.529 -6.91,-1.585 C 7.181,16.543 5.5,15.12 4.146,13.332 2.791,11.543 1.761,9.497 1.057,7.194 0.352,4.89 0,2.492 0,0 m -3.089,0 c 0,2.979 0.419,5.784 1.26,8.413 0.84,2.629 2.073,4.945 3.699,6.951 1.626,2.004 3.63,3.59 6.016,4.756 2.384,1.164 5.121,1.747 8.211,1.747 3.089,0 5.825,-0.583 8.21,-1.747 2.384,-1.166 4.389,-2.752 6.015,-4.756 1.626,-2.006 2.859,-4.322 3.699,-6.951 0.84,-2.629 1.26,-5.434 1.26,-8.413 0,-2.981 -0.42,-5.8 -1.26,-8.455 -0.84,-2.656 -2.073,-4.973 -3.699,-6.95 -1.626,-1.98 -3.631,-3.551 -6.015,-4.715 -2.385,-1.165 -5.121,-1.748 -8.21,-1.748 -3.09,0 -5.827,0.583 -8.211,1.748 -2.386,1.164 -4.39,2.735 -6.016,4.715 -1.626,1.977 -2.859,4.294 -3.699,6.95 C -2.67,-5.8 -3.089,-2.981 -3.089,0" />
          </g>
          <g
             transform="translate(618.6279,274.7275)"
             id="g116">
            <path
               inkscape:connector-curvature="0"
               id="path118"
               style="fill:#414141;fill-opacity:1;fill-rule:nonzero;stroke:none"
               d="m 0,0 c 0,-2.494 0.352,-4.892 1.057,-7.195 0.704,-2.304 1.734,-4.349 3.089,-6.138 1.354,-1.788 3.035,-3.211 5.041,-4.268 2.003,-1.056 4.308,-1.585 6.91,-1.585 2.6,0 4.903,0.529 6.909,1.585 2.005,1.057 3.685,2.48 5.04,4.268 1.354,1.789 2.385,3.834 3.09,6.138 0.703,2.303 1.056,4.701 1.056,7.195 0,2.492 -0.353,4.89 -1.056,7.194 -0.705,2.303 -1.736,4.349 -3.09,6.138 -1.355,1.788 -3.035,3.211 -5.04,4.268 -2.006,1.056 -4.309,1.585 -6.909,1.585 -2.602,0 -4.907,-0.529 -6.91,-1.585 C 7.181,16.543 5.5,15.12 4.146,13.332 2.791,11.543 1.761,9.497 1.057,7.194 0.352,4.89 0,2.492 0,0 m -3.089,0 c 0,2.979 0.419,5.784 1.26,8.413 0.84,2.629 2.073,4.945 3.699,6.951 1.626,2.004 3.63,3.59 6.016,4.756 2.384,1.164 5.121,1.747 8.211,1.747 3.089,0 5.825,-0.583 8.21,-1.747 2.384,-1.166 4.389,-2.752 6.015,-4.756 1.626,-2.006 2.859,-4.322 3.699,-6.951 0.84,-2.629 1.26,-5.434 1.26,-8.413 0,-2.981 -0.42,-5.8 -1.26,-8.455 -0.84,-2.656 -2.073,-4.973 -3.699,-6.95 -1.626,-1.98 -3.631,-3.551 -6.015,-4.715 -2.385,-1.165 -5.121,-1.748 -8.21,-1.748 -3.09,0 -5.827,0.583 -8.211,1.748 -2.386,1.164 -4.39,2.735 -6.016,4.715 -1.626,1.977 -2.859,4.294 -3.699,6.95 C -2.67,-5.8 -3.089,-2.981 -3.089,0" />
          </g>
          <g
             transform="translate(680.2881,255.542)"
             id="g120">
            <path
               inkscape:connector-curvature="0"
               id="path122"
               style="fill:#414141;fill-opacity:1;fill-rule:nonzero;stroke:none"
               d="m 0,0 c 2.716,0 5.065,0.515 7.05,1.545 1.982,1.028 3.612,2.41 4.889,4.145 1.277,1.734 2.229,3.752 2.854,6.057 0.625,2.303 0.937,4.756 0.937,7.357 0,2.384 -0.299,4.728 -0.897,7.032 -0.598,2.302 -1.521,4.362 -2.771,6.178 -1.25,1.815 -2.866,3.279 -4.85,4.39 C 5.228,37.814 2.825,38.37 0,38.37 c -2.771,0 -5.136,-0.542 -7.092,-1.626 -1.956,-1.084 -3.547,-2.519 -4.768,-4.308 -1.223,-1.789 -2.106,-3.834 -2.65,-6.138 -0.544,-2.304 -0.814,-4.702 -0.814,-7.194 0,-2.494 0.244,-4.892 0.733,-7.195 0.488,-2.304 1.318,-4.336 2.486,-6.097 1.168,-1.761 2.744,-3.17 4.727,-4.227 C -5.394,0.528 -2.935,0 0,0 m -15.405,30.485 h 0.244 c 0.325,1.029 0.866,2.167 1.626,3.414 0.758,1.247 1.76,2.399 3.008,3.455 1.246,1.057 2.75,1.937 4.511,2.642 1.76,0.704 3.781,1.057 6.056,1.057 3.197,0 5.976,-0.597 8.333,-1.788 2.357,-1.193 4.309,-2.792 5.854,-4.796 1.544,-2.006 2.695,-4.337 3.454,-6.991 0.758,-2.657 1.138,-5.448 1.138,-8.374 0,-3.199 -0.381,-6.125 -1.14,-8.78 C 16.918,7.668 15.763,5.378 14.215,3.455 12.666,1.53 10.71,0.026 8.348,-1.057 5.985,-2.141 3.201,-2.683 -0.004,-2.683 c -3.477,0 -6.575,0.76 -9.29,2.277 -2.716,1.516 -4.699,3.983 -5.949,7.397 h -0.159 l -0.003,-23.656 h -3.008 v 56.742 h 3.008 z" />
          </g>
        </g>
      </g>
    </g>
  </g>
</svg>
